<svg width="165" height="36" viewBox="0 0 165 36" fill="none" xmlns="http://www.w3.org/2000/svg">
<path d="M128.875 0.749573C128.128 0.749573 127.48 1.01379 126.949 1.54223C126.418 2.07066 126.135 2.71469 126.135 3.45781C126.135 4.20092 126.401 4.84495 126.949 5.37339C127.48 5.90183 128.145 6.16604 128.875 6.16604C129.623 6.16604 130.27 5.90183 130.802 5.37339C131.333 4.84495 131.616 4.20092 131.616 3.45781C131.616 2.71469 131.35 2.07066 130.802 1.54223C130.27 1.0303 129.623 0.749573 128.875 0.749573Z" fill="#080808"/>
<path d="M69.9864 11.5C69.4882 11.0211 68.8903 10.6082 68.1928 10.2945C67.0968 9.78253 65.9177 9.51832 64.6721 9.51832C63.3436 9.51832 62.1312 9.74951 61.0518 10.1954C59.9723 10.6412 59.0423 11.2853 58.2618 12.0944C57.4979 12.8871 56.9 13.8449 56.4848 14.9348C56.0696 16.0082 55.8704 17.1972 55.8704 18.4522C55.8704 19.7072 56.0696 20.8797 56.4848 21.9531C56.9 23.0265 57.4979 23.9843 58.2618 24.7934C59.0257 25.6026 59.9723 26.2466 61.0518 26.709C62.1312 27.1549 63.3436 27.3861 64.6721 27.3861C65.8346 27.3861 66.9971 27.1384 68.0932 26.6264C68.8073 26.2962 69.455 25.8833 69.9698 25.3714V26.9732H74.0053V0.716553H69.9698V11.5H69.9864ZM69.6377 20.5329C69.4052 21.1604 69.073 21.7054 68.6578 22.1347C68.2427 22.5806 67.7278 22.9274 67.1134 23.1751C66.4989 23.4393 65.818 23.5549 65.0541 23.5549C64.2902 23.5549 63.5927 23.4228 62.9948 23.1751C62.3804 22.9109 61.8655 22.5641 61.4504 22.1347C61.0352 21.6889 60.703 21.1604 60.4705 20.5329C60.238 19.9054 60.1218 19.1953 60.1218 18.4357C60.1218 17.676 60.238 16.966 60.4705 16.3384C60.703 15.7109 61.0352 15.166 61.4504 14.7366C61.8655 14.3073 62.3804 13.944 62.9948 13.6963C63.6093 13.432 64.2902 13.3165 65.0541 13.3165C65.818 13.3165 66.5155 13.4486 67.1134 13.6963C67.7112 13.9605 68.2427 14.3073 68.6578 14.7366C69.073 15.1825 69.4052 15.7109 69.6377 16.3384C69.8702 16.9825 69.9864 17.676 69.9864 18.4357C69.9864 19.1953 69.8702 19.9054 69.6377 20.5329Z" fill="#080808"/>
<path d="M141.447 23.3402C141.214 23.1751 141.032 22.9604 140.915 22.6962C140.783 22.399 140.716 22.0522 140.7 21.6558C140.683 21.2265 140.666 20.7806 140.666 20.3348V13.4981H145.134V9.91465H140.666V5.40643H136.631V8.18072C136.631 9.33668 136.083 9.93117 134.837 9.93117H133.044V13.4981H136.647V21.4247C136.647 22.1017 136.681 22.7623 136.73 23.4228C136.797 24.1329 136.996 24.7934 137.345 25.3714C137.694 25.9659 138.258 26.4613 138.989 26.8246C139.703 27.1879 140.716 27.3696 141.978 27.3696C142.327 27.3696 142.792 27.3365 143.407 27.254C144.054 27.1714 144.586 27.0063 145.001 26.7751L145.233 26.643V23.0265C144.22 23.3898 143.307 23.5879 142.56 23.5879C142.045 23.5879 141.679 23.5054 141.447 23.3402Z" fill="#080808"/>
<path d="M51.2869 11.2523C50.6891 10.7073 49.9251 10.278 48.9951 9.96421C48.0818 9.65045 46.9857 9.50183 45.7568 9.50183C44.5112 9.50183 43.3487 9.71651 42.153 10.1293C40.9407 10.5422 39.8612 11.1697 38.9478 12.0119L38.5991 12.3257L41.0902 14.8522L41.4223 14.6045C41.7046 14.4064 41.9869 14.1917 42.2859 13.9605C42.5516 13.7623 42.8671 13.5807 43.1993 13.4156C43.5314 13.2669 43.93 13.1348 44.3451 13.0192C44.7603 12.9202 45.2419 12.8706 45.8066 12.8706C46.4044 12.8706 46.9359 12.9532 47.3676 13.1183C47.7828 13.2835 48.1482 13.5146 48.4139 13.7954C48.6962 14.0761 48.8955 14.4064 49.045 14.7532C49.1778 15.1 49.2609 15.4632 49.2609 15.81V16.0247H47.4507C46.1885 16.0247 44.9762 16.1238 43.8635 16.322C42.7177 16.5201 41.7046 16.8669 40.8577 17.3293C39.9775 17.8082 39.2634 18.4357 38.7652 19.1953C38.2503 19.9715 37.9846 20.9458 37.9846 22.0687C37.9846 22.9274 38.1507 23.7035 38.4828 24.3641C38.815 25.0246 39.2634 25.5861 39.8446 26.032C40.4093 26.4778 41.0735 26.8081 41.8209 27.0228C42.5516 27.2375 43.3321 27.3531 44.1293 27.3531C45.4412 27.3531 46.6037 27.1219 47.6001 26.6595C48.2976 26.3457 48.9287 25.8668 49.4934 25.2558C49.51 25.6687 49.5432 26.098 49.5764 26.5109L49.6096 26.9402H53.1303V15.3311C53.1303 14.5715 52.9809 13.8284 52.6985 13.1348C52.3498 12.4413 51.9014 11.7972 51.2869 11.2523ZM49.2443 19.7568C49.2443 20.2522 49.1778 20.7641 49.0284 21.276C48.8789 21.7715 48.6464 22.2173 48.3142 22.6302C47.9987 23.0265 47.5503 23.3568 47.0189 23.6045C46.4875 23.8522 45.8232 23.9843 45.0426 23.9843C44.0628 23.9843 43.2657 23.8026 42.7176 23.4393C42.2194 23.1256 41.9869 22.5971 41.9869 21.821C41.9869 21.3091 42.1364 20.8962 42.4519 20.5825C42.8007 20.2192 43.2657 19.9384 43.8303 19.7403C44.4282 19.5256 45.0925 19.377 45.8232 19.3109C46.5705 19.2284 47.3178 19.1953 48.0485 19.1953H49.2443V19.7568Z" fill="#080808"/>
<path d="M130.885 9.91467H126.849V26.9402H130.885V9.91467Z" fill="#080808"/>
<path d="M109.578 12.3917C108.897 11.533 108 10.8394 106.954 10.311C105.891 9.78253 104.579 9.51831 103.068 9.51831C101.789 9.51831 100.593 9.7495 99.4974 10.1954C98.4013 10.6412 97.4547 11.2853 96.6576 12.0779C95.8771 12.8706 95.246 13.8284 94.7976 14.9183C94.3492 16.0082 94.1167 17.1806 94.1167 18.4357C94.1167 19.6907 94.316 20.8632 94.7312 21.9531C95.1463 23.043 95.7442 23.9842 96.5081 24.7934C97.2721 25.6026 98.2353 26.2301 99.3313 26.6925C100.427 27.1384 101.673 27.3695 103.018 27.3695C106.273 27.3695 108.831 26.1971 110.641 23.9017L110.923 23.5384L107.834 21.2265L107.552 21.5733C106.987 22.2503 106.356 22.8118 105.692 23.2246C105.061 23.6209 104.28 23.8191 103.417 23.8191C102.752 23.8191 102.105 23.72 101.49 23.5054C100.876 23.2907 100.328 23.0099 99.8628 22.6301C99.4144 22.2668 99.0324 21.821 98.7501 21.2925C98.5508 20.9127 98.4179 20.4999 98.3681 20.054H111.488V18.5017C111.488 17.4283 111.338 16.3384 111.039 15.2981C110.757 14.2082 110.259 13.2339 109.578 12.3917ZM98.4013 16.6522C98.4512 16.3219 98.5508 15.9917 98.7003 15.6449C98.9162 15.1495 99.2317 14.6871 99.6303 14.2742C100.029 13.8614 100.51 13.5311 101.092 13.2669C101.656 13.0192 102.304 12.8871 102.985 12.8871C103.682 12.8871 104.347 13.0027 104.862 13.2174C105.376 13.432 105.825 13.7293 106.173 14.0926C106.522 14.4559 106.788 14.9018 106.954 15.4137C107.087 15.7935 107.17 16.2228 107.22 16.6687H98.4013V16.6522Z" fill="#080808"/>
<path d="M85.1322 21.4412L80.5321 9.91467H75.9319L82.9899 26.9567H87.0421L93.8344 9.91467H89.5165L85.1322 21.4412Z" fill="#080808"/>
<path d="M121.219 9.74951C120.671 9.89813 120.173 10.1128 119.708 10.3935C119.243 10.6578 118.828 10.988 118.446 11.3678C118.413 11.4009 118.38 11.4339 118.346 11.4669V9.91465H114.311V26.9402H118.346V18.3861C118.346 16.7513 118.712 15.5458 119.426 14.8027C120.14 14.0596 121.203 13.6798 122.581 13.6798C122.797 13.6798 123.03 13.6963 123.262 13.7458C123.511 13.7953 123.744 13.8449 123.993 13.9109L124.541 14.0596V9.78254L124.391 9.733C123.461 9.43575 122.315 9.43575 121.219 9.74951Z" fill="#080808"/>
<path d="M160.08 9.91465L155.713 21.7219L151.146 9.89814H146.529L153.504 26.5769L152.557 28.9549C152.408 29.3347 152.242 29.698 152.092 29.9952C151.959 30.2594 151.777 30.5071 151.577 30.7053C151.378 30.887 151.146 31.0356 150.88 31.1512C150.598 31.2503 150.249 31.2998 149.817 31.2998C149.153 31.2998 148.239 31.1512 147.575 30.986V31.0026V34.6686C147.99 34.8337 148.439 34.9328 148.887 34.9823C149.369 35.0484 149.867 35.0649 150.332 35.0649C151.229 35.0649 152.009 34.9328 152.657 34.7016C153.305 34.4539 153.853 34.0906 154.318 33.6447C154.766 33.1989 155.148 32.6704 155.463 32.0429C155.762 31.4484 156.061 30.7879 156.344 30.0778L164.381 9.86511H160.08V9.91465Z" fill="#080808"/>
<path d="M22.0262 7.73576C24.1852 7.95044 25.9787 6.15045 25.7628 4.00368C25.5968 2.41837 24.318 1.13031 22.7237 0.965171C20.5648 0.750494 18.7712 2.55048 18.9871 4.69725C19.1366 6.28256 20.432 7.57062 22.0262 7.73576Z" fill="#080808"/>
<path d="M3.87449 10.6752C2.28021 10.8238 0.984854 12.1284 0.83539 13.7137C0.619497 15.8605 2.42967 17.6605 4.57199 17.4458C6.16628 17.2806 7.46163 15.9926 7.6111 14.4073C7.82699 12.2605 6.03342 10.4605 3.87449 10.6752Z" fill="#080808"/>
<path d="M31.2763 13.7137C31.1102 12.1119 29.8315 10.8238 28.2372 10.6752C26.0782 10.4605 24.2847 12.2605 24.5006 14.4073C24.6666 15.9926 25.9454 17.2806 27.5397 17.4458C29.6986 17.6605 31.4922 15.877 31.2763 13.7137Z" fill="#080808"/>
<path d="M22.7237 20.4018C20.5648 20.1871 18.7712 21.9871 18.9871 24.1338C19.1532 25.7357 20.432 27.0072 22.0262 27.1723C24.1852 27.387 25.9787 25.587 25.7628 23.4403C25.6134 21.8384 24.318 20.5504 22.7237 20.4018Z" fill="#080808"/>
<path d="M8.54102 20.5999L10.9823 16.9339L13.4567 13.2348L17.5089 16.9173C15.7319 19.7907 12.3607 21.2935 9.02263 20.6824L8.54102 20.5999Z" fill="#080808"/>
<path d="M19.8175 13.7302C19.7676 13.2017 19.585 12.7228 19.3192 12.2935C17.343 9.07334 15.3834 5.85318 13.4403 2.61651C12.7926 1.52661 11.5471 0.833035 10.1687 0.981658C8.57443 1.14679 7.27908 2.43486 7.12961 4.02017C7.04658 4.81282 7.24586 5.53942 7.62783 6.15042C10.2185 10.3614 10.6669 11.121 12.6432 14.4238C12.8923 14.8531 13.1414 15.2825 13.4901 15.8109C13.4901 15.8274 13.5067 15.8274 13.5067 15.8439C14.0548 16.7357 15.0014 17.3797 16.0809 17.4788C16.3134 17.4953 16.5292 17.4953 16.7451 17.4788C16.0476 18.3705 14.935 18.9155 13.6894 18.7833C12.5934 18.6678 11.68 18.0402 11.1153 17.1485L10.9825 16.9338C10.833 17.165 10.6669 17.3962 10.5175 17.6274C9.81997 18.6678 9.07265 19.7907 7.72747 21.8053C7.27908 22.4494 7.02997 23.2585 7.11301 24.1173C7.27908 25.7026 8.55783 26.9906 10.1521 27.1558C11.6135 27.3044 12.9089 26.5282 13.5234 25.3393C16.3466 20.6659 16.5791 20.2861 19.0867 16.1742C19.5351 15.4476 19.9005 14.6549 19.8175 13.7302Z" fill="#080808"/>
</svg>
