<svg width="164" height="24" viewBox="0 0 164 24" fill="none" xmlns="http://www.w3.org/2000/svg">
<g clip-path="url(#clip0_14_26)">
<path fill-rule="evenodd" clip-rule="evenodd" d="M1.56996 0.441284H12.4292C14.7214 0.513814 17.1276 1.08369 18.8804 2.62755C20.3947 3.94345 21.2348 5.90176 21.4734 7.86008C21.9297 11.6524 20.7992 15.6622 18.1959 18.4909C15.4266 21.5579 11.2987 23.1639 7.2122 23.3401H1.27955C1.27955 17.6551 1.27955 11.9701 1.27955 6.28514C3.4023 6.29204 5.52506 6.2955 7.64781 6.2955C7.64781 10.2639 7.63744 14.2324 7.64781 18.2008C10.8423 18.0039 13.6323 15.6622 14.6073 12.6574C15.1673 10.896 15.3748 8.79261 14.3272 7.17622C13.5182 5.95357 11.9625 5.60128 10.583 5.61164C7.08774 5.59092 3.59245 5.61164 0.097168 5.60128C0.563897 3.87092 1.08249 2.16128 1.56996 0.441284ZM23.8174 0.441284H29.5426C29.5426 1.96442 29.5426 3.48755 29.5426 5.02104C27.6342 5.02104 25.7258 5.02104 23.8174 5.02104C23.8174 3.48755 23.8174 1.96442 23.8174 0.441284ZM63.199 0.441284H69.0694C69.5673 2.16128 70.0616 3.88128 70.5526 5.60128C68.7997 5.61164 67.0469 5.58056 65.2941 5.61164C64.1221 5.63237 62.836 5.87068 61.9855 6.7514C61.0002 7.76682 60.8342 9.27959 60.9483 10.6266C61.1246 13.2066 62.6597 15.6622 64.9311 16.916C66.7254 17.9521 68.8309 18.2319 70.8741 18.1904C70.3763 19.9104 69.8853 21.627 69.4013 23.3401H67.6485C64.7236 23.2157 61.8195 22.1796 59.5481 20.3145C55.8558 17.3615 53.8955 12.4398 54.5178 7.76682C54.7771 5.71526 55.7209 3.69478 57.3701 2.40996C59.0088 1.08369 61.135 0.575983 63.199 0.441284ZM72.378 0.441284H78.1032C78.1032 2.42377 78.1032 4.40972 78.1032 6.39911C80.5302 6.482 83.1543 6.05719 85.3738 7.26947C87.137 8.26417 87.6038 10.4401 87.6349 12.3051C87.6764 15.9834 87.6452 19.6618 87.6556 23.3401H81.9304C81.92 19.9519 81.9511 16.574 81.92 13.1859C81.8682 12.4916 81.9097 11.5177 81.1214 11.2275C80.1568 10.896 79.1093 11.01 78.1032 10.9789C78.1032 15.1027 78.1032 19.2231 78.1032 23.3401H72.378C72.378 15.7071 72.378 8.07421 72.378 0.441284ZM91.7732 7.60104C93.7127 6.01574 96.3679 5.99502 98.7534 6.00538C100.786 6.0261 103.068 6.12971 104.696 7.50779C106.211 8.81333 106.159 11.1136 105.537 12.8543C104.458 15.5275 101.875 17.1336 99.469 18.4702C101.315 18.8328 103.203 18.7707 105.08 18.7603C104.603 20.2938 104.126 21.8169 103.659 23.3401H99.7283C94.8225 23.1743 90.4664 19.123 89.8855 14.2842C89.6159 11.9632 89.8855 9.21742 91.7732 7.60104ZM96.0153 11.6006C95.3411 12.6678 95.6626 13.994 95.9738 15.1234C97.3843 14.3774 98.8986 13.6003 99.8321 12.2637C100.216 11.7767 100.247 10.8649 99.5002 10.7095C98.3178 10.4712 96.7724 10.5126 96.0153 11.6006ZM23.8174 6.39911C25.7258 6.39911 27.6342 6.39911 29.5426 6.39911C29.5426 12.0426 29.5426 17.6896 29.5426 23.3401H23.8174C23.8174 17.6931 23.8174 12.0461 23.8174 6.39911ZM32.3119 8.57502C33.0586 7.20731 34.6144 6.49237 36.1287 6.4302C37.8919 6.34731 39.6551 6.41984 41.4183 6.39911C41.8954 7.88425 42.3725 9.36939 42.8496 10.8545C41.5635 10.896 40.2566 10.7198 38.9913 10.9892C38.5038 11.1343 38.649 11.7456 38.9187 12.0254C40.0596 13.5381 41.4287 14.8644 42.4866 16.4393C43.3889 17.776 43.7104 19.5892 42.9222 21.0502C42.248 22.4179 40.7752 23.2365 39.2817 23.3401H33.1001C32.623 21.8135 32.1459 20.2904 31.6688 18.7707C33.4113 18.6153 35.216 19.0608 36.9169 18.5842C35.7553 16.2736 33.6187 14.6261 32.3637 12.3777C31.7207 11.2172 31.617 9.72514 32.3119 8.57502ZM107.974 6.39911C113.689 6.39911 119.393 6.38875 125.108 6.39911C126.83 6.4302 128.78 6.63743 130.045 7.94297C131.331 9.34176 131.445 11.3519 131.456 13.1548C131.445 16.5533 131.456 19.9415 131.456 23.3401H125.886C125.876 19.9622 125.907 16.574 125.876 13.1962C125.813 12.5434 125.876 11.6834 125.243 11.3001C124.392 10.9063 123.417 11.0307 122.505 10.9789C122.505 15.0924 122.505 19.2162 122.505 23.3401H116.935C116.935 19.2231 116.935 15.1062 116.935 10.9892C115.805 10.9892 114.674 10.9892 113.544 10.9892C113.544 15.1062 113.544 19.2231 113.544 23.3401H107.974C107.974 17.6896 107.974 12.0426 107.974 6.39911ZM44.1253 11.3104C47.3094 11.3104 50.5039 11.3104 53.6881 11.3104C53.6881 12.7921 53.6881 14.2738 53.6881 15.7659C50.5005 15.7659 47.3129 15.7659 44.1253 15.7659C44.1253 14.2807 44.1253 12.7956 44.1253 11.3104Z" fill="#080808"/>
<path d="M148.185 0.441223H156.13C156.358 0.762428 156.483 1.1458 156.462 1.5499C156.441 3.58074 156.452 5.62194 156.452 7.65279C158.381 7.64242 160.31 7.66315 162.239 7.63206C162.727 7.60098 163.204 7.72532 163.66 7.8911V15.859C163.328 16.0766 162.934 16.1803 162.54 16.1595C160.507 16.1492 158.474 16.1492 156.452 16.1492C156.452 18.18 156.441 20.2005 156.462 22.2313C156.483 22.6251 156.338 22.9877 156.182 23.34H148.216C147.885 22.9463 147.926 22.4075 147.916 21.9309C147.936 20.0036 147.926 18.0764 147.926 16.1492C145.8 16.1388 143.663 16.1595 141.537 16.1492C141.112 16.1803 140.614 15.973 140.707 15.4653C140.676 13.1754 140.718 10.8752 140.697 8.58532C140.655 8.2123 140.759 7.61134 141.278 7.67351C143.487 7.61134 145.707 7.67351 147.926 7.65279C147.926 5.7152 147.936 3.78797 147.916 1.86074C147.874 1.36339 147.999 0.897127 148.185 0.441223Z" fill="#080808"/>
</g>
<defs>
<clipPath id="clip0_14_26">
<rect width="163.301" height="22.9355" fill="white" transform="translate(0.097168 0.441284)"/>
</clipPath>
</defs>
</svg>
