<svg width="82" height="82" viewBox="0 0 82 82" fill="none" xmlns="http://www.w3.org/2000/svg">
<path d="M63.7509 62.6907H66.2846V72.3364H63.2366L59.3858 66.5415V72.3364H56.8521V62.6907H59.9001L63.7509 68.5358V62.6907ZM52.4118 62.6907L56.0494 72.3364H53.3777L52.6627 70.4298H48.5611L47.8461 72.3364H45.3124L48.9123 62.6907H52.4118ZM51.9477 68.4856L50.6809 65.1366H50.5555L49.276 68.4856H51.9477ZM73.3589 67.1686L77.172 62.6782H73.9484L70.6872 66.5665V62.6782H68.1535V72.3238H70.6872V67.9212L74.1617 72.3238H77.4229L73.3589 67.1686ZM11.4083 68.5233L7.55751 62.6782H4.50952V72.3238H7.04324V66.5289L10.894 72.3238H13.942V62.6782H11.4083V68.5233ZM42.9292 67.2564C44.0706 67.432 44.9988 68.0592 44.9988 69.7149C44.9988 71.6591 43.895 72.3364 41.6122 72.3364H36.1935V62.6907H41.3989C43.594 62.6907 44.6978 63.4558 44.6978 65.2746C44.7103 66.3659 43.9452 67.131 42.9292 67.2564ZM38.7398 66.4536H40.8596C41.7502 66.4536 41.9132 66.115 41.9132 65.6133C41.9132 65.1115 41.7502 64.7227 40.8596 64.7227H38.7398V66.4536ZM41.1606 70.3044C42.0512 70.3044 42.2143 69.9281 42.2143 69.4138C42.2143 68.9121 41.9634 68.4856 41.1606 68.4856H38.7523V70.3044H41.1606ZM30.1101 62.6907C33.2835 62.6907 34.889 64.0454 34.889 67.5198C34.889 70.9065 33.3212 72.3489 30.1101 72.3489H25.3688V62.7032H30.1101M29.8969 70.3044C31.1261 70.3044 32.0919 69.7149 32.0919 67.5073C32.0919 65.3122 31.1136 64.7102 29.8969 64.7102H27.9025V70.2919H29.8969M15.8109 72.3364H23.5124V70.3044H18.3446V68.4856H22.6595V66.4536H18.3446V64.7227H23.5124V62.6907H15.8109V72.3364Z" fill="#080808"/>
<path d="M51.7721 26.6542V12.2797L60.038 17.8739V43.7003L21.6309 18.1373L30.4362 12.2797L51.7721 26.6542ZM62.4338 16.8078L51.7721 9.62054L41.1104 16.8078L30.4362 9.62054L19.4985 16.8078V45.2933L30.4362 52.4805L41.1104 45.2933L51.7721 52.4805L62.4338 45.2933V16.8078ZM30.4362 38.1061L38.9655 43.9637L30.4362 49.8214V38.1061Z" fill="#080808"/>
</svg>
