<svg width="138" height="59" viewBox="0 0 138 59" fill="none" xmlns="http://www.w3.org/2000/svg">
<mask id="mask0_15_156" style="mask-type:luminance" maskUnits="userSpaceOnUse" x="0" y="0" width="138" height="59">
<path d="M137.571 0.267151H0.178223V58.3319H137.571V0.267151Z" fill="white"/>
</mask>
<g mask="url(#mask0_15_156)">
<path fill-rule="evenodd" clip-rule="evenodd" d="M68.7637 25.9415H70.3677V28.3164H64.3624V25.9415H65.9667V15.9622H63.8074V18.1289H61.5862V13.4413H73.1441V18.1289H70.9231V15.9622H68.7637V25.9415Z" fill="#080808"/>
<path d="M82.3365 26.8165C81.5349 28.0457 80.2392 28.6081 78.7995 28.6081C75.653 28.6081 73.1646 25.9623 73.1646 22.8164C73.1646 19.5872 75.7147 16.8997 78.9229 16.8997C80.342 16.8997 81.5758 17.5663 82.3365 18.7747V17.1914H86.2653V19.5663H84.8873V25.9415H86.2653V28.3164H82.3365V26.8165ZM82.3782 22.6915C82.3782 20.8582 80.8768 19.3789 79.067 19.3789C77.1955 19.3789 75.756 20.9415 75.756 22.8165C75.756 24.629 77.2572 26.1291 79.0258 26.1291C80.9178 26.1291 82.3782 24.5874 82.3782 22.6915Z" fill="#080808"/>
<path fill-rule="evenodd" clip-rule="evenodd" d="M90.8713 25.9415H92.2902V28.3164H86.8403V25.9415H88.3623V15.8164H86.9434V13.4413H90.8713V25.9415Z" fill="#080808"/>
<path d="M103.889 25.0457C103.026 27.1707 100.989 28.6082 98.7069 28.6082C95.4986 28.6082 92.9282 26.0665 92.9282 22.7957C92.9282 19.504 95.3751 16.8581 98.6447 16.8581C100.167 16.8581 101.689 17.5455 102.758 18.6498C103.848 19.8165 104.301 21.2332 104.301 22.8164L104.218 23.7123H95.3342C95.663 25.254 97.0615 26.379 98.6243 26.379C99.7144 26.379 100.661 25.9624 101.277 25.0457H103.889ZM101.977 21.7539C101.545 20.1497 100.146 19.1289 98.5221 19.1289C97.041 19.1289 95.6221 20.2955 95.3138 21.7539H101.977Z" fill="#080808"/>
<path fill-rule="evenodd" clip-rule="evenodd" d="M106.357 19.5663H104.938V17.1914H108.866V18.7747C109.524 17.5455 110.758 16.9414 112.115 16.9414C113.308 16.9414 114.48 17.4414 115.282 18.3164C116.188 19.3372 116.208 20.3164 116.208 21.5872V25.9414H117.627V28.3165H112.28V25.9414H113.699V22.3373C113.699 21.6497 113.699 20.9413 113.267 20.3372C112.815 19.733 112.074 19.4414 111.334 19.4414C110.573 19.4414 109.791 19.7539 109.339 20.3788C108.866 21.0039 108.866 21.9622 108.866 22.7123V25.9414H110.285V28.3165H104.938V25.9414H106.357V19.5663Z" fill="#080808"/>
<path fill-rule="evenodd" clip-rule="evenodd" d="M122.233 25.9415H124.228V28.3164H119.724V19.5665H117.996V17.1913H119.724V13.4413H122.233V17.1913H124.105V19.5665H122.233V25.9415Z" fill="#080808"/>
<path fill-rule="evenodd" clip-rule="evenodd" d="M76.6403 45.4561H74.3164V43.1644C73.1852 44.8727 71.2316 45.7477 69.2161 45.7477C64.9795 45.7477 61.5862 42.2684 61.5862 37.9768C61.5862 35.9559 62.2854 34.0809 63.6633 32.6018C65.0824 31.1017 67.139 30.185 69.175 30.185C70.9436 30.185 72.4656 30.7892 73.8023 31.9558V30.581H76.1056V34.956H73.0617C72.5887 34.3102 72.0334 33.831 71.396 33.5184C70.7584 33.1851 70.0386 33.0186 69.2367 33.0186C66.5013 33.0186 64.4036 35.1851 64.4036 37.9353C64.4036 40.6644 66.5013 42.9144 69.216 42.9144C71.1698 42.9144 72.815 41.8311 73.535 39.9976H68.1055V37.6018H76.6402L76.6403 45.4561Z" fill="#080808"/>
<path d="M86.6348 43.9561C85.8334 45.1853 84.5371 45.7477 83.0978 45.7477C79.9511 45.7477 77.4626 43.1019 77.4626 39.956C77.4626 36.7268 80.0129 34.0393 83.2213 34.0393C84.6402 34.0393 85.8743 34.706 86.6348 35.9143V34.3309H90.5628V36.7059H89.1848V43.081H90.5628V45.456H86.6348V43.9561ZM86.6765 39.8311C86.6765 37.9978 85.175 36.5185 83.3652 36.5185C81.4936 36.5185 80.0542 38.0811 80.0542 39.9561C80.0542 41.7686 81.5555 43.2687 83.3243 43.2687C85.2159 43.2687 86.6765 41.7268 86.6765 39.8311Z" fill="#080808"/>
<path fill-rule="evenodd" clip-rule="evenodd" d="M94.8818 36.2269C95.5197 34.9143 96.753 34.2685 98.1719 34.2061V36.8101C97.3704 36.8518 96.6303 37.0601 96.0128 37.6227C95.1901 38.331 95.0666 39.2269 95.0666 40.2686V43.0811H96.4864V45.4561H91.1387V43.0811H92.5576V36.706H91.1387V34.331H94.8818V36.2269Z" fill="#080808"/>
<path d="M108.167 43.7894C107.345 45.0394 106.028 45.6228 104.568 45.6228C101.504 45.6228 98.9744 42.9769 98.9744 39.8936C98.9744 36.7892 101.442 34.1434 104.548 34.1434C105.946 34.1434 107.303 34.8101 108.167 35.956V32.956H106.727V30.5809H110.676V43.081H112.095V45.456H108.167L108.167 43.7894ZM108.229 39.8519C108.229 38.0186 106.727 36.5184 104.938 36.5184C103.067 36.5184 101.586 38.0393 101.586 39.9353C101.586 41.7685 103.067 43.2895 104.897 43.2895C106.768 43.2895 108.229 41.7269 108.229 39.8519Z" fill="#080808"/>
<path d="M123.529 42.1853C122.665 44.3103 120.629 45.7478 118.346 45.7478C115.138 45.7478 112.567 43.2062 112.567 39.9352C112.567 36.6436 115.015 33.9976 118.284 33.9976C119.806 33.9976 121.328 34.6852 122.398 35.7892C123.488 36.956 123.94 38.3726 123.94 39.956L123.858 40.8519H114.974C115.302 42.3936 116.701 43.5186 118.264 43.5186C119.354 43.5186 120.3 43.1019 120.917 42.1852L123.529 42.1853ZM121.616 38.8936C121.184 37.2894 119.786 36.2686 118.161 36.2686C116.681 36.2686 115.262 37.4353 114.952 38.8936H121.616Z" fill="#080808"/>
<path fill-rule="evenodd" clip-rule="evenodd" d="M124.577 36.706V34.331H128.505V35.9144C129.164 34.6852 130.398 34.081 131.755 34.081C132.948 34.081 134.12 34.581 134.922 35.456C135.827 36.4769 135.848 37.456 135.848 38.7268V43.081H137.267V45.456H131.92V43.081H133.339V39.4769C133.339 38.7893 133.339 38.081 132.907 37.4768C132.454 36.8727 131.714 36.581 130.974 36.581C130.212 36.581 129.431 36.8935 128.979 37.5185C128.505 38.1435 128.505 39.1018 128.505 39.8519V43.081H129.924V45.456H124.577V43.081H125.996V36.706H124.577Z" fill="#080808"/>
<path fill-rule="evenodd" clip-rule="evenodd" d="M54.7168 30.6475C54.7168 45.8807 42.5173 58.2298 27.468 58.2298C12.4192 58.2298 0.219238 45.8807 0.219238 30.6475C0.219238 15.4146 12.4192 3.06555 27.468 3.06555C42.5173 3.06555 54.7168 15.4146 54.7168 30.6475Z" fill="#080808"/>
<path fill-rule="evenodd" clip-rule="evenodd" d="M40.7696 1.23838C33.5844 1.09532 27.6707 5.57697 27.5589 11.249C27.5211 13.2209 28.1896 15.0767 29.3793 16.6653C31.4261 19.3271 29.1926 23.9029 29.1926 23.9029L35.7869 21.0272C37.2082 21.4822 38.7519 21.7472 40.3699 21.7793C47.5554 21.9228 53.4701 17.4401 53.5806 11.7683C53.6908 6.09562 47.9556 1.38152 40.7696 1.23838Z" fill="white"/>
<path d="M27.2218 25.7962L28.3514 23.4825C28.898 22.3547 30.0141 19.0372 28.64 17.2488C27.2756 15.427 26.58 13.3492 26.6211 11.2306C26.7429 4.99904 32.9866 0.12925 40.7891 0.288975C44.4719 0.362427 47.9213 1.57154 50.5027 3.69284C53.1512 5.86993 54.5772 8.74464 54.5176 11.7872C54.3991 17.9243 48.3307 22.7323 40.7053 22.7323C40.5811 22.7191 40.4698 22.7311 40.352 22.7288C38.8027 22.6979 37.2872 22.4652 35.8429 22.0371L27.2218 25.7962ZM40.4357 2.18462C33.9506 2.18462 28.5961 6.25917 28.4973 11.268C28.4643 12.9556 29.0275 14.6236 30.1272 16.092C31.5347 17.9224 31.2754 20.4039 30.81 22.1634L35.7366 20.0157L36.07 20.1222C37.4446 20.5617 38.8975 20.8001 40.3888 20.8301C46.9978 20.9527 52.5434 16.8397 52.6426 11.7496C52.6907 9.30501 51.5101 6.96713 49.3199 5.16691C47.062 3.31093 44.0181 2.25285 40.7507 2.18782C40.6461 2.18562 40.54 2.18462 40.4357 2.18462Z" fill="#080808"/>
<path fill-rule="evenodd" clip-rule="evenodd" d="M36.7362 10.1346C35.9467 10.1346 35.3064 10.7824 35.3064 11.5822C35.3064 12.3819 35.9467 13.0295 36.7362 13.0295C37.5266 13.0295 38.1668 12.3819 38.1668 11.5822C38.1668 10.7824 37.5265 10.1346 36.7362 10.1346Z" fill="#080808"/>
<path fill-rule="evenodd" clip-rule="evenodd" d="M40.8204 10.1346C40.0308 10.1346 39.3906 10.7824 39.3906 11.5822C39.3906 12.3819 40.0308 13.0295 40.8204 13.0295C41.6099 13.0295 42.2504 12.3819 42.2504 11.5822C42.2504 10.7824 41.6099 10.1346 40.8204 10.1346Z" fill="#080808"/>
<path fill-rule="evenodd" clip-rule="evenodd" d="M44.9048 10.1346C44.1147 10.1346 43.4741 10.7824 43.4741 11.5822C43.4741 12.3819 44.1147 13.0295 44.9048 13.0295C45.6948 13.0295 46.3347 12.3819 46.3347 11.5822C46.3347 10.7824 45.6948 10.1346 44.9048 10.1346Z" fill="#080808"/>
<path fill-rule="evenodd" clip-rule="evenodd" d="M13.9822 33.7132H16.166V36.3114H11.2354V26.7389H9.34351V24.1403H11.2354V20.0383H13.9822V24.1403H16.0313V26.7389H13.9822V33.7132Z" fill="white"/>
<path d="M26.5903 34.6699C25.7122 36.0152 24.293 36.6305 22.7176 36.6305C19.2727 36.6305 16.5481 33.736 16.5481 30.2941C16.5481 26.7619 19.3393 23.8215 22.852 23.8215C24.4057 23.8215 25.7565 24.5513 26.5903 25.8725V24.1404H30.8902V26.7389H29.3813V33.7131H30.8902V36.3113H26.5903V34.6699ZM26.6349 30.1579C26.6349 28.152 24.9915 26.5338 23.0097 26.5338C20.9614 26.5338 19.385 28.2431 19.385 30.2941C19.385 32.2773 21.029 33.9179 22.9649 33.9179C25.0362 33.918 26.6349 32.2318 26.6349 30.1579Z" fill="white"/>
<path d="M35.257 37.3597C35.7301 38.3849 36.9002 38.8641 37.959 38.8641C38.904 38.8641 39.8956 38.4532 40.5032 37.7475C41.2686 36.8353 41.3366 36.0613 41.3366 34.9214V34.465C40.481 35.8782 39.1073 36.4942 37.486 36.4942C34.0637 36.4942 31.4075 33.5992 31.4075 30.2034C31.4075 26.8529 34.1763 23.9355 37.508 23.9355C39.1296 23.9355 40.6153 24.5057 41.5161 25.9182V24.1405H45.5915V26.7389H44.0381V34.6933C44.0381 36.562 43.9035 38.0205 42.5291 39.4115C41.2459 40.6875 39.602 41.2574 37.8244 41.2574C35.3243 41.2574 32.7127 40.0037 32.0822 37.3597L35.257 37.3597ZM37.8907 33.9178C39.9622 33.9178 41.5386 32.2084 41.5386 30.1578C41.5386 28.1295 39.8719 26.4885 37.8692 26.4885C35.8647 26.4885 34.2212 28.152 34.2212 30.1806C34.2212 32.2545 35.843 33.9178 37.8907 33.9178Z" fill="white"/>
</g>
</svg>
