<svg width="165" height="23" viewBox="0 0 165 23" fill="none" xmlns="http://www.w3.org/2000/svg">
<path fill-rule="evenodd" clip-rule="evenodd" d="M9.32544 21.8665H14.8466L23.6481 0.823792H18.3525L9.32544 21.8665Z" fill="#080808"/>
<path d="M69.9009 13.515C69.9009 14.09 69.9753 14.6349 70.1235 15.1497C70.2717 15.6653 70.4986 16.1257 70.8052 16.5316C71.1112 16.9377 71.5163 17.2594 72.02 17.4974C72.5236 17.735 73.1311 17.8538 73.8423 17.8538C74.5536 17.8538 75.1616 17.735 75.6655 17.4974C76.1692 17.2594 76.5788 16.9377 76.895 16.5316C77.2106 16.1257 77.4381 15.6653 77.5767 15.1497C77.7146 14.6349 77.7837 14.09 77.7837 13.515V0.823547H82.8511V13.931C82.8511 15.1992 82.6389 16.3537 82.2144 17.3939C81.7893 18.4339 81.1821 19.3256 80.3921 20.0687C79.6017 20.8118 78.6477 21.3908 77.5317 21.8069C76.4155 22.2231 75.1762 22.4319 73.813 22.4319C72.4301 22.4319 71.185 22.2232 70.0786 21.8069C68.9723 21.3908 68.0346 20.8116 67.2642 20.0687C66.4937 19.3256 65.9007 18.4339 65.4858 17.3939C65.071 16.3537 64.8628 15.1992 64.8628 13.931V0.823547H69.9009V13.515ZM152.583 0.259094C154.222 0.259117 155.743 0.516473 157.146 1.03156C158.548 1.54691 159.758 2.2797 160.776 3.23077C161.793 4.1817 162.588 5.33674 163.162 6.69366C163.735 8.05113 164.021 9.57234 164.021 11.2562C164.021 12.9207 163.735 14.441 163.162 15.8177C162.588 17.1953 161.793 18.374 160.776 19.3548C159.758 20.3358 158.548 21.0935 157.146 21.6282C155.743 22.1632 154.222 22.4319 152.583 22.4319C150.942 22.4319 149.426 22.1632 148.034 21.6282C146.641 21.0935 145.435 20.3359 144.417 19.3548C143.4 18.3741 142.605 17.1952 142.033 15.8177C141.459 14.441 141.172 12.9207 141.172 11.2562C141.172 9.57233 141.459 8.05114 142.033 6.69366C142.605 5.33677 143.4 4.18169 144.417 3.23077C145.435 2.27952 146.641 1.54697 148.034 1.03156C149.426 0.516526 150.942 0.259094 152.583 0.259094ZM130.208 0.259094C131.689 0.259098 133.146 0.52146 134.579 1.0462C136.011 1.57156 137.172 2.33928 138.061 3.34991L134.624 6.79718C134.149 6.14347 133.526 5.65833 132.756 5.34113C131.986 5.02443 131.195 4.86554 130.385 4.86554C129.496 4.86556 128.681 5.02886 127.94 5.35577C127.199 5.68268 126.562 6.13409 126.029 6.70831C125.496 7.28341 125.081 7.96185 124.785 8.74445C124.489 9.52724 124.34 10.3839 124.34 11.3148C124.34 12.266 124.489 13.1387 124.785 13.931C125.081 14.7235 125.49 15.4025 126.014 15.9671C126.537 16.5317 127.165 16.9727 127.896 17.2894C128.627 17.6066 129.427 17.7649 130.296 17.765C131.304 17.765 132.183 17.5668 132.934 17.1702C133.684 16.7742 134.287 16.2595 134.742 15.6253L138.268 18.9534C137.339 20.0235 136.194 20.8711 134.831 21.4954C133.467 22.1193 131.897 22.431 130.119 22.431C128.499 22.431 127.002 22.1632 125.629 21.6282C124.256 21.0935 123.065 20.3359 122.058 19.3548C121.05 18.3741 120.26 17.2003 119.687 15.8333C119.114 14.4659 118.828 12.9596 118.828 11.3148C118.828 9.63126 119.119 8.10548 119.702 6.73859C120.284 5.37149 121.09 4.20757 122.118 3.2464C123.145 2.28551 124.35 1.54697 125.733 1.03156C127.116 0.516477 128.607 0.259094 130.208 0.259094ZM44.2974 21.8665H38.6665L37.0366 17.7357H28.9175L27.3755 21.8665H21.8638L30.6655 0.824524H35.5845L44.2974 21.8665ZM53.2173 17.4378H61.3374V21.8665H48.1196V0.823547H53.2173V17.4378ZM103.922 0.823547V5.16339H97.9956V21.8665H92.9282V5.16339H87.0005V0.823547H103.922ZM113.406 21.8665H108.308V0.823547H113.406V21.8665ZM10.687 11.9124L7.85986 18.7025L0.45752 0.823547H6.08838L10.687 11.9124ZM152.583 4.83624C151.694 4.83624 150.883 4.99956 150.152 5.32648C149.421 5.65367 148.789 6.09888 148.255 6.66339C147.722 7.22826 147.311 7.90724 147.025 8.69952C146.738 9.49211 146.596 10.3453 146.596 11.2562C146.596 12.2076 146.744 13.0842 147.041 13.886C147.337 14.6886 147.747 15.3776 148.271 15.9525C148.794 16.5268 149.421 16.9771 150.152 17.304C150.883 17.631 151.694 17.7943 152.583 17.7943C153.471 17.7942 154.281 17.6309 155.012 17.304C155.743 16.9771 156.375 16.5269 156.909 15.9525C157.442 15.3776 157.857 14.6886 158.154 13.886C158.45 13.0842 158.598 12.2076 158.598 11.2562C158.598 10.3453 158.45 9.49211 158.154 8.69952C157.857 7.90729 157.446 7.22823 156.923 6.66339C156.399 6.09899 155.767 5.65362 155.027 5.32648C154.286 4.99964 153.471 4.83627 152.583 4.83624ZM30.3687 13.6634H35.644L33.0356 6.44171L30.3687 13.6634Z" fill="#080808"/>
</svg>
