<?xml version="1.0" encoding="UTF-8"?>
<svg width="204px" height="196px" viewBox="0 0 204 196" version="1.1" xmlns="http://www.w3.org/2000/svg" xmlns:xlink="http://www.w3.org/1999/xlink">
    <!-- Generator: Sketch 53.2 (72643) - https://sketchapp.com -->
    <title>Group</title>
    <desc>Created with Sketch.</desc>
    <g id="Page-1" stroke="none" stroke-width="1" fill="none" fill-rule="evenodd">
        <g id="2" transform="translate(-133.000000, -59.000000)">
            <g id="Group" transform="translate(133.000000, 59.000000)">
                <polygon id="Fill-1" fill="#FEFEFE" points="165.20853 170.058362 165.20853 185.744781 154.102863 170.058362 145.316704 170.058362 145.316704 195.97754 152.63656 195.97754 152.63656 180.402583 163.744558 195.97754 172.531494 195.97754 172.531494 170.058362"></polygon>
                <path d="M123.273707,170.058362 L113.480536,195.97754 L120.392758,195.97754 L122.354474,190.860436 L133.528329,190.860436 L135.490044,195.97754 L142.749272,195.97754 L132.837253,170.058362 L123.273707,170.058362 Z M127.770833,176.652694 L128.113437,176.652694 L131.571749,185.633319 L124.311054,185.633319 L127.770833,176.652694 Z" id="Fill-2" fill="#FEFEFE"></path>
                <polygon id="Fill-3" fill="#FEFEFE" points="194.238526 170.058362 185.213357 180.516215 185.213357 170.058362 178.179846 170.058362 178.179846 195.97754 185.213357 195.97754 185.213357 184.154642 194.826767 195.97754 203.854176 195.97754 192.599215 182.108525 203.15172 170.058362"></polygon>
                <polygon id="Fill-4" fill="#FEFEFE" points="19.8911074 170.058362 19.8911074 185.744781 8.78670885 170.058362 -5.32907052e-15 170.058362 -5.32907052e-15 195.97754 7.32212788 195.97754 7.32212788 180.402583 18.4265264 195.97754 27.2147892 195.97754 27.2147892 170.058362"></polygon>
                <path d="M101.661257,190.380159 L94.9467079,190.380159 L94.9467079,185.37057 L101.661257,185.37057 C103.89594,185.37057 104.60384,186.534279 104.60384,187.932511 C104.60384,189.332227 104.132157,190.380159 101.661257,190.380159 L101.661257,190.380159 Z M94.9467079,174.995154 L100.835624,174.995154 C103.311023,174.995154 103.780457,176.043828 103.780457,177.44206 C103.780457,178.840292 103.311023,179.774673 100.835624,179.774673 L94.9467079,179.774673 L94.9467079,174.995154 Z M106.605306,181.987798 C109.433156,181.639725 111.551606,179.540893 111.551606,176.509163 C111.551606,171.49809 108.48979,169.4 102.367657,169.4 L87.8804588,169.4 L87.8804588,195.97754 L102.954824,195.97754 C109.315423,195.97754 112.378739,194.111004 112.378739,188.74963 C112.378739,184.203892 109.787856,182.456102 106.605306,181.987798 L106.605306,181.987798 Z" id="Fill-5" fill="#FEFEFE"></path>
                <path d="M70.3312196,190.380159 L64.7962536,190.380159 L64.7962536,174.995154 L70.3312196,174.995154 C73.7469857,174.995154 76.456352,176.627167 76.456352,182.687657 C76.456352,188.74963 73.7469857,190.380159 70.3312196,190.380159 M70.9198862,169.4 L57.7315043,169.4 L57.7315043,195.97754 L70.9198862,195.97754 C79.872868,195.97754 84.2297509,192.012172 84.2297509,182.687657 C84.2297509,173.130103 79.752885,169.4 70.9198862,169.4" id="Fill-7" fill="#FEFEFE"></path>
                <polygon id="Fill-9" fill="#FEFEFE" points="31.1122248 195.97754 52.5471886 195.97754 52.5471886 190.380159 38.1784739 190.380159 38.1784739 185.37057 50.1910224 185.37057 50.1910224 179.774673 38.1784739 179.774673 38.1784739 174.995154 52.5471886 174.995154 52.5471886 169.4 31.1122248 169.4"></polygon>
                <g id="Group-2" transform="translate(26.639175, -0.000000)">
                    <g id="Group-13" fill="#FEFEFE">
                        <polygon id="Fill-11" points="110.254783 0.126835373 75.6134396 23.0722375 41.1460718 0.117929437 0.0511427558 27.4376305 0.0511427558 125.207739 41.1528208 152.456935 75.6134396 129.497431 110.254783 152.450997 151.333214 125.206997 151.333214 27.36193"></polygon>
                    </g>
                    <path d="M41.7705833,98.5679318 L69.2691882,117.277819 L41.7705833,135.988449 L41.7705833,98.5679318 Z M144.890727,30.530291 L110.517096,7.56781918 L76.1434645,30.530291 L41.7705833,7.56781918 L6.53832387,30.530291 L6.53832387,121.531146 L41.7705833,144.492875 L76.1434645,121.531146 L110.517096,144.492875 L144.890727,121.531146 L144.890727,30.530291 Z M110.517096,61.9979318 L110.517096,16.072246 L137.156322,33.9323586 L137.156322,116.428044 L13.4126001,34.7828755 L41.7705833,16.072246 L110.517096,61.9979318 Z" id="Fill-14" fill="#00643B"></path>
                </g>
            </g>
        </g>
    </g>
</svg>