<svg width="280" height="250" viewBox="0 0 280 250" fill="none" xmlns="http://www.w3.org/2000/svg">
<g clip-path="url(#clip0_66_119)">
<rect width="280" height="250" fill="white"/>
<rect x="-15" y="-45" width="295.419" height="295.419" fill="#2950CC"/>
<rect x="47" y="100" width="71.1794" height="19.8599" rx="2.63627" fill="#3CE5D9"/>
<path d="M65.7891 109.858L63.8885 105.51H64.7642L66.4599 109.442H65.9568L67.6711 105.51H68.4786L66.5841 109.858H65.7891ZM68.8932 109.858V106.541H69.6696V109.858H68.8932ZM69.2845 105.995C69.1396 105.995 69.0195 105.949 68.9242 105.858C68.8331 105.767 68.7876 105.657 68.7876 105.529C68.7876 105.396 68.8331 105.287 68.9242 105.2C69.0195 105.109 69.1396 105.063 69.2845 105.063C69.4294 105.063 69.5474 105.106 69.6385 105.193C69.7338 105.276 69.7814 105.382 69.7814 105.51C69.7814 105.647 69.7358 105.763 69.6447 105.858C69.5536 105.949 69.4336 105.995 69.2845 105.995ZM70.6886 109.858V106.541H71.4278V107.454L71.3408 107.187C71.4402 106.964 71.5955 106.794 71.8067 106.678C72.022 106.562 72.2891 106.504 72.6079 106.504V107.243C72.5748 107.235 72.5437 107.231 72.5147 107.231C72.4858 107.227 72.4568 107.225 72.4278 107.225C72.1338 107.225 71.8998 107.311 71.7259 107.485C71.552 107.655 71.465 107.91 71.465 108.249V109.858H70.6886ZM74.6363 109.902C74.2719 109.902 73.9903 109.808 73.7916 109.622C73.5928 109.432 73.4934 109.152 73.4934 108.784V105.808H74.2699V108.765C74.2699 108.922 74.3092 109.044 74.3879 109.131C74.4707 109.218 74.5846 109.262 74.7295 109.262C74.9034 109.262 75.0483 109.216 75.1643 109.125L75.3817 109.678C75.2906 109.753 75.1788 109.808 75.0463 109.846C74.9138 109.883 74.7771 109.902 74.6363 109.902ZM72.9469 107.187V106.566H75.1581V107.187H72.9469ZM77.4241 109.902C77.1425 109.902 76.8941 109.85 76.6788 109.746C76.4634 109.639 76.2957 109.477 76.1756 109.262C76.0556 109.042 75.9955 108.767 75.9955 108.436V106.541H76.7719V108.33C76.7719 108.628 76.8382 108.852 76.9707 109.001C77.1073 109.146 77.2999 109.218 77.5483 109.218C77.7305 109.218 77.8879 109.181 78.0204 109.107C78.157 109.032 78.2626 108.92 78.3372 108.771C78.4158 108.622 78.4552 108.438 78.4552 108.218V106.541H79.2316V109.858H78.4924V108.964L78.6229 109.237C78.5111 109.452 78.3475 109.618 78.1322 109.734C77.9169 109.846 77.6808 109.902 77.4241 109.902ZM82.2917 109.858V109.187L82.2482 109.044V107.87C82.2482 107.643 82.1798 107.467 82.0432 107.343C81.9066 107.214 81.6995 107.15 81.4221 107.15C81.2357 107.15 81.0515 107.179 80.8693 107.237C80.6912 107.295 80.5401 107.376 80.4159 107.479L80.1115 106.914C80.2896 106.777 80.5007 106.676 80.745 106.61C80.9935 106.539 81.2502 106.504 81.5152 106.504C81.9956 106.504 82.3662 106.62 82.6271 106.852C82.8921 107.08 83.0246 107.434 83.0246 107.914V109.858H82.2917ZM81.2482 109.902C80.9997 109.902 80.7823 109.86 80.596 109.777C80.4096 109.69 80.2647 109.572 80.1612 109.423C80.0618 109.27 80.0121 109.098 80.0121 108.908C80.0121 108.721 80.0556 108.554 80.1426 108.405C80.2337 108.256 80.3807 108.138 80.5836 108.051C80.7865 107.964 81.0556 107.92 81.391 107.92H82.3538V108.436H81.4469C81.1819 108.436 81.0039 108.479 80.9128 108.566C80.8217 108.649 80.7761 108.752 80.7761 108.877C80.7761 109.018 80.832 109.129 80.9438 109.212C81.0556 109.295 81.2109 109.336 81.4097 109.336C81.6001 109.336 81.7699 109.293 81.919 109.206C82.0722 109.119 82.1819 108.991 82.2482 108.821L82.3786 109.287C82.3041 109.481 82.1695 109.632 81.9749 109.74C81.7844 109.848 81.5422 109.902 81.2482 109.902ZM84.021 109.858V105.249H84.7974V109.858H84.021ZM88.4896 109.858V106.193H87.0486V105.51H90.7381V106.193H89.297V109.858H88.4896ZM92.4205 109.902C92.081 109.902 91.7787 109.829 91.5137 109.684C91.2487 109.535 91.0396 109.332 90.8863 109.075C90.7331 108.819 90.6565 108.527 90.6565 108.2C90.6565 107.868 90.7331 107.576 90.8863 107.324C91.0396 107.067 91.2487 106.866 91.5137 106.721C91.7787 106.576 92.081 106.504 92.4205 106.504C92.7642 106.504 93.0686 106.576 93.3336 106.721C93.6027 106.866 93.8119 107.065 93.9609 107.318C94.1141 107.57 94.1907 107.864 94.1907 108.2C94.1907 108.527 94.1141 108.819 93.9609 109.075C93.8119 109.332 93.6027 109.535 93.3336 109.684C93.0686 109.829 92.7642 109.902 92.4205 109.902ZM92.4205 109.237C92.611 109.237 92.7808 109.196 92.9299 109.113C93.0789 109.03 93.1949 108.91 93.2777 108.752C93.3646 108.595 93.4081 108.411 93.4081 108.2C93.4081 107.984 93.3646 107.8 93.2777 107.647C93.1949 107.49 93.0789 107.369 92.9299 107.287C92.7808 107.204 92.6131 107.162 92.4267 107.162C92.2363 107.162 92.0665 107.204 91.9174 107.287C91.7725 107.369 91.6565 107.49 91.5696 107.647C91.4826 107.8 91.4391 107.984 91.4391 108.2C91.4391 108.411 91.4826 108.595 91.5696 108.752C91.6565 108.91 91.7725 109.03 91.9174 109.113C92.0665 109.196 92.2342 109.237 92.4205 109.237ZM96.3369 109.902C96.0553 109.902 95.8069 109.85 95.5916 109.746C95.3762 109.639 95.2085 109.477 95.0885 109.262C94.9684 109.042 94.9083 108.767 94.9083 108.436V106.541H95.6847V108.33C95.6847 108.628 95.751 108.852 95.8835 109.001C96.0201 109.146 96.2127 109.218 96.4611 109.218C96.6433 109.218 96.8007 109.181 96.9332 109.107C97.0699 109.032 97.1754 108.92 97.25 108.771C97.3287 108.622 97.368 108.438 97.368 108.218V106.541H98.1444V109.858H97.4053V108.964L97.5357 109.237C97.4239 109.452 97.2603 109.618 97.045 109.734C96.8297 109.846 96.5937 109.902 96.3369 109.902ZM99.161 109.858V106.541H99.9001V107.454L99.8131 107.187C99.9125 106.964 100.068 106.794 100.279 106.678C100.494 106.562 100.761 106.504 101.08 106.504V107.243C101.047 107.235 101.016 107.231 100.987 107.231C100.958 107.227 100.929 107.225 100.9 107.225C100.606 107.225 100.372 107.311 100.198 107.485C100.024 107.655 99.9374 107.91 99.9374 108.249V109.858H99.161Z" fill="#1B2142"/>
<path d="M82.6279 250L49.5 200L236.917 117L281 168.109V216.895V250H82.6279Z" fill="#1B3796"/>
<g filter="url(#filter0_d_66_119)">
<path d="M47 116.171C47 115.17 47.8113 114.359 48.8121 114.359H235.422C236.423 114.359 237.234 115.17 237.234 116.171V201H47V116.171Z" fill="white"/>
</g>
<rect x="122.549" y="144.511" width="87" height="2.53062" rx="0.843538" fill="#EFF1F2"/>
<rect x="122.549" y="144.511" width="51.8776" height="2.53062" rx="0.843538" fill="#2950CC"/>
<g filter="url(#filter1_dd_66_119)">
<rect x="167.679" y="142.402" width="6.74831" height="6.74831" rx="3.37415" fill="#2950CC"/>
</g>
<rect x="122.549" y="161.463" width="87" height="2.53062" rx="0.843538" fill="#EFF1F2"/>
<rect x="122.549" y="161.463" width="51.8776" height="2.53062" rx="0.843538" fill="#2950CC"/>
<g filter="url(#filter2_dd_66_119)">
<rect x="167.679" y="159.354" width="6.74831" height="6.74831" rx="3.37415" fill="#2950CC"/>
</g>
<rect x="122.549" y="177.996" width="87" height="2.53062" rx="0.843538" fill="#EFF1F2"/>
<rect x="122.549" y="177.996" width="51.8776" height="2.53062" rx="0.843538" fill="#2950CC"/>
<g filter="url(#filter3_dd_66_119)">
<rect x="167.679" y="175.887" width="6.74831" height="6.74831" rx="3.37415" fill="#2950CC"/>
</g>
<rect x="59.5571" y="143.24" width="4.30361" height="4.30361" rx="2.1518" fill="#D9D9DA"/>
<rect x="66.4424" y="143.527" width="37.7283" height="4.30361" rx="2.1518" fill="url(#paint0_linear_66_119)"/>
<rect x="59.5571" y="159.982" width="4.30361" height="4.30361" rx="2.1518" fill="#D9D9DA"/>
<rect x="66.4424" y="160.269" width="37.7283" height="4.30361" rx="2.1518" fill="url(#paint1_linear_66_119)"/>
<rect x="59.5571" y="176.724" width="4.30361" height="4.30361" rx="2.1518" fill="#D9D9DA"/>
<rect x="66.4424" y="177.011" width="37.7283" height="4.30361" rx="2.1518" fill="url(#paint2_linear_66_119)"/>
<rect x="47" y="197.71" width="190.339" height="3.33928" fill="#D9D9DA"/>
<rect width="69.062" height="3.34846" transform="translate(47.0342 197.786)" fill="#899FE3"/>
<g clip-path="url(#clip1_66_119)">
<path d="M138.04 213.535C138.063 212.495 138.086 211.455 138.109 210.22C137.724 210.446 137.454 210.587 137.196 210.792C131.664 214.883 125.046 214.975 119.359 211.058C115.719 208.519 113.479 205.003 111.893 200.926C110.129 196.359 110.205 191.715 111.383 187.05C111.993 184.649 113.32 182.648 114.973 180.851C115.417 180.389 115.865 179.959 116.52 179.591C116.382 179.938 116.287 180.342 116.033 180.579C110.039 186.592 110.342 198.429 116.187 206.045C118.471 209.035 121.441 211.07 125.104 211.985C129.41 213.054 134.574 211.453 137.406 208.134C135.888 207.802 134.136 208.611 132.73 207.192C134.766 206.919 136.607 206.647 138.421 206.411C139.027 206.343 139.554 206.58 139.49 207.173C139.307 209.212 139.056 211.229 138.768 213.22C138.758 213.352 138.483 213.462 138.341 213.583C138.283 213.625 138.146 213.583 138.04 213.535Z" fill="#3CE3D7"/>
</g>
<path d="M60.6872 132.777L59.6743 127.319H60.9384L61.3151 129.872C61.3486 130.156 61.3848 130.444 61.4239 130.734C61.463 131.019 61.4992 131.306 61.5327 131.596H61.5662C61.622 131.306 61.675 131.019 61.7253 130.734C61.7811 130.444 61.8369 130.156 61.8927 129.872L62.4787 127.319H63.5251L64.111 129.872C64.1668 130.145 64.2199 130.427 64.2701 130.717C64.3259 131.007 64.3817 131.3 64.4375 131.596H64.471C64.5101 131.3 64.5463 131.01 64.5798 130.726C64.6189 130.435 64.658 130.151 64.697 129.872L65.0737 127.319H66.254L65.283 132.777H63.7343L63.1986 130.299C63.1539 130.087 63.1121 129.875 63.073 129.662C63.0395 129.445 63.0088 129.236 62.9809 129.035H62.9474C62.914 129.236 62.8777 129.445 62.8386 129.662C62.8051 129.875 62.7661 130.087 62.7214 130.299L62.2108 132.777H60.6872ZM68.7694 132.877C68.3731 132.877 68.016 132.791 67.6979 132.617C67.3798 132.444 67.1286 132.196 66.9445 131.872C66.7603 131.549 66.6682 131.158 66.6682 130.701C66.6682 130.248 66.7603 129.861 66.9445 129.537C67.1342 129.213 67.3798 128.965 67.6811 128.792C67.9825 128.613 68.2978 128.524 68.6271 128.524C69.0233 128.524 69.3498 128.613 69.6065 128.792C69.8688 128.965 70.0641 129.202 70.1925 129.503C70.3264 129.799 70.3934 130.137 70.3934 130.516C70.3934 130.622 70.3878 130.728 70.3766 130.834C70.3655 130.935 70.3543 131.01 70.3432 131.06H67.8569C67.9127 131.362 68.0383 131.585 68.2336 131.73C68.429 131.87 68.6633 131.939 68.9368 131.939C69.2326 131.939 69.5312 131.847 69.8325 131.663L70.2427 132.408C70.0306 132.553 69.7935 132.668 69.5312 132.751C69.2689 132.835 69.0149 132.877 68.7694 132.877ZM67.8486 130.248H69.347C69.347 130.02 69.2912 129.833 69.1796 129.688C69.0735 129.537 68.8977 129.462 68.6522 129.462C68.4624 129.462 68.2922 129.529 68.1415 129.662C67.9909 129.791 67.8932 129.986 67.8486 130.248ZM72.3738 132.877C71.9497 132.877 71.6539 132.751 71.4865 132.5C71.3246 132.244 71.2437 131.906 71.2437 131.487V126.908H72.4743V131.538C72.4743 131.666 72.4966 131.755 72.5412 131.805C72.5915 131.856 72.6417 131.881 72.6919 131.881C72.7198 131.881 72.7421 131.881 72.7589 131.881C72.7812 131.875 72.8091 131.87 72.8426 131.864L72.9933 132.777C72.9263 132.804 72.8398 132.827 72.7338 132.844C72.6333 132.866 72.5133 132.877 72.3738 132.877ZM75.4471 132.877C75.0621 132.877 74.7133 132.793 74.4007 132.626C74.0938 132.453 73.8483 132.205 73.6641 131.881C73.4855 131.552 73.3962 131.158 73.3962 130.701C73.3962 130.237 73.4967 129.844 73.6976 129.52C73.8985 129.196 74.1636 128.951 74.4928 128.784C74.8221 128.611 75.1765 128.524 75.556 128.524C75.8127 128.524 76.0387 128.566 76.234 128.65C76.4349 128.733 76.6135 128.839 76.7698 128.968L76.1922 129.763C75.9968 129.601 75.8099 129.52 75.6313 129.52C75.3355 129.52 75.0983 129.626 74.9198 129.838C74.7468 130.05 74.6603 130.338 74.6603 130.701C74.6603 131.058 74.7468 131.345 74.9198 131.563C75.0983 131.775 75.3216 131.881 75.5895 131.881C75.7234 131.881 75.8545 131.853 75.9829 131.797C76.1113 131.736 76.2284 131.663 76.3345 131.579L76.82 132.383C76.6135 132.562 76.3903 132.69 76.1503 132.768C75.9103 132.841 75.676 132.877 75.4471 132.877ZM79.0926 132.877C78.741 132.877 78.4089 132.793 78.0964 132.626C77.7895 132.453 77.5411 132.205 77.3514 131.881C77.1616 131.552 77.0668 131.158 77.0668 130.701C77.0668 130.237 77.1616 129.844 77.3514 129.52C77.5411 129.196 77.7895 128.951 78.0964 128.784C78.4089 128.611 78.741 128.524 79.0926 128.524C79.4442 128.524 79.7734 128.611 80.0804 128.784C80.3873 128.951 80.6357 129.196 80.8254 129.52C81.0152 129.844 81.11 130.237 81.11 130.701C81.11 131.158 81.0152 131.552 80.8254 131.881C80.6357 132.205 80.3873 132.453 80.0804 132.626C79.7734 132.793 79.4442 132.877 79.0926 132.877ZM79.0926 131.881C79.3437 131.881 79.5335 131.775 79.6618 131.563C79.7902 131.345 79.8544 131.058 79.8544 130.701C79.8544 130.338 79.7902 130.05 79.6618 129.838C79.5335 129.626 79.3437 129.52 79.0926 129.52C78.8359 129.52 78.6433 129.626 78.515 129.838C78.3922 130.05 78.3308 130.338 78.3308 130.701C78.3308 131.058 78.3922 131.345 78.515 131.563C78.6433 131.775 78.8359 131.881 79.0926 131.881ZM81.9529 132.777V128.624H82.9574L83.0411 129.16H83.0746C83.2476 128.987 83.4318 128.839 83.6271 128.717C83.8225 128.588 84.0568 128.524 84.3303 128.524C84.6261 128.524 84.8633 128.585 85.0419 128.708C85.226 128.825 85.3711 128.996 85.4772 129.219C85.6613 129.029 85.8566 128.867 86.0631 128.733C86.2696 128.594 86.5096 128.524 86.7831 128.524C87.2295 128.524 87.556 128.675 87.7625 128.976C87.9745 129.272 88.0806 129.679 88.0806 130.198V132.777H86.85V130.357C86.85 130.056 86.8082 129.849 86.7245 129.738C86.6463 129.626 86.518 129.57 86.3394 129.57C86.1329 129.57 85.8957 129.704 85.6278 129.972V132.777H84.3973V130.357C84.3973 130.056 84.3554 129.849 84.2717 129.738C84.1936 129.626 84.0652 129.57 83.8866 129.57C83.6801 129.57 83.4458 129.704 83.1835 129.972V132.777H81.9529ZM90.9889 132.877C90.5927 132.877 90.2355 132.791 89.9174 132.617C89.5993 132.444 89.3482 132.196 89.164 131.872C88.9798 131.549 88.8877 131.158 88.8877 130.701C88.8877 130.248 88.9798 129.861 89.164 129.537C89.3537 129.213 89.5993 128.965 89.9007 128.792C90.202 128.613 90.5173 128.524 90.8466 128.524C91.2428 128.524 91.5693 128.613 91.826 128.792C92.0883 128.965 92.2836 129.202 92.412 129.503C92.5459 129.799 92.6129 130.137 92.6129 130.516C92.6129 130.622 92.6073 130.728 92.5962 130.834C92.585 130.935 92.5738 131.01 92.5627 131.06H90.0764C90.1323 131.362 90.2578 131.585 90.4531 131.73C90.6485 131.87 90.8829 131.939 91.1563 131.939C91.4521 131.939 91.7507 131.847 92.052 131.663L92.4622 132.408C92.2502 132.553 92.013 132.668 91.7507 132.751C91.4884 132.835 91.2345 132.877 90.9889 132.877ZM90.0681 130.248H91.5665C91.5665 130.02 91.5107 129.833 91.3991 129.688C91.2931 129.537 91.1173 129.462 90.8717 129.462C90.682 129.462 90.5117 129.529 90.3611 129.662C90.2104 129.791 90.1127 129.986 90.0681 130.248ZM96.738 132.877C96.2246 132.877 95.8562 132.729 95.633 132.433C95.4153 132.138 95.3065 131.75 95.3065 131.27V129.587H94.7373V128.675L95.3735 128.624L95.5158 127.519H96.5371V128.624H97.5332V129.587H96.5371V131.253C96.5371 131.487 96.5845 131.658 96.6794 131.764C96.7798 131.864 96.911 131.914 97.0728 131.914C97.1398 131.914 97.2068 131.906 97.2737 131.889C97.3463 131.872 97.4105 131.853 97.4663 131.831L97.6588 132.726C97.5528 132.76 97.4216 132.793 97.2654 132.827C97.1147 132.86 96.9389 132.877 96.738 132.877ZM99.9796 132.877C99.628 132.877 99.2959 132.793 98.9834 132.626C98.6765 132.453 98.4281 132.205 98.2384 131.881C98.0486 131.552 97.9538 131.158 97.9538 130.701C97.9538 130.237 98.0486 129.844 98.2384 129.52C98.4281 129.196 98.6765 128.951 98.9834 128.784C99.2959 128.611 99.628 128.524 99.9796 128.524C100.331 128.524 100.66 128.611 100.967 128.784C101.274 128.951 101.523 129.196 101.712 129.52C101.902 129.844 101.997 130.237 101.997 130.701C101.997 131.158 101.902 131.552 101.712 131.881C101.523 132.205 101.274 132.453 100.967 132.626C100.66 132.793 100.331 132.877 99.9796 132.877ZM99.9796 131.881C100.231 131.881 100.42 131.775 100.549 131.563C100.677 131.345 100.741 131.058 100.741 130.701C100.741 130.338 100.677 130.05 100.549 129.838C100.42 129.626 100.231 129.52 99.9796 129.52C99.7229 129.52 99.5303 129.626 99.402 129.838C99.2792 130.05 99.2178 130.338 99.2178 130.701C99.2178 131.058 99.2792 131.345 99.402 131.563C99.5303 131.775 99.7229 131.881 99.9796 131.881ZM106.299 132.877C105.947 132.877 105.615 132.793 105.303 132.626C104.996 132.453 104.747 132.205 104.558 131.881C104.368 131.552 104.273 131.158 104.273 130.701C104.273 130.237 104.368 129.844 104.558 129.52C104.747 129.196 104.996 128.951 105.303 128.784C105.615 128.611 105.947 128.524 106.299 128.524C106.65 128.524 106.98 128.611 107.287 128.784C107.594 128.951 107.842 129.196 108.032 129.52C108.221 129.844 108.316 130.237 108.316 130.701C108.316 131.158 108.221 131.552 108.032 131.881C107.842 132.205 107.594 132.453 107.287 132.626C106.98 132.793 106.65 132.877 106.299 132.877ZM106.299 131.881C106.55 131.881 106.74 131.775 106.868 131.563C106.996 131.345 107.061 131.058 107.061 130.701C107.061 130.338 106.996 130.05 106.868 129.838C106.74 129.626 106.55 129.52 106.299 129.52C106.042 129.52 105.85 129.626 105.721 129.838C105.598 130.05 105.537 130.338 105.537 130.701C105.537 131.058 105.598 131.345 105.721 131.563C105.85 131.775 106.042 131.881 106.299 131.881ZM110.406 132.877C109.954 132.877 109.625 132.729 109.419 132.433C109.218 132.132 109.117 131.722 109.117 131.203V128.624H110.348V131.044C110.348 131.34 110.39 131.546 110.473 131.663C110.557 131.775 110.688 131.831 110.867 131.831C111.023 131.831 111.154 131.794 111.26 131.722C111.366 131.649 111.481 131.532 111.604 131.37V128.624H112.834V132.777H111.83L111.737 132.199H111.712C111.539 132.405 111.35 132.57 111.143 132.693C110.937 132.816 110.691 132.877 110.406 132.877ZM113.917 132.777V128.624H114.921L115.005 129.353H115.039C115.189 129.074 115.371 128.867 115.583 128.733C115.795 128.594 116.007 128.524 116.219 128.524C116.336 128.524 116.434 128.532 116.512 128.549C116.59 128.56 116.657 128.58 116.713 128.608L116.512 129.671C116.439 129.649 116.367 129.632 116.294 129.621C116.227 129.609 116.149 129.604 116.06 129.604C115.904 129.604 115.739 129.662 115.566 129.78C115.399 129.891 115.259 130.087 115.148 130.366V132.777H113.917ZM119.975 132.777L118.325 127.319H119.631L120.284 129.863C120.368 130.159 120.441 130.449 120.502 130.734C120.569 131.019 120.644 131.312 120.728 131.613H120.761C120.84 131.312 120.912 131.019 120.979 130.734C121.046 130.449 121.119 130.159 121.197 129.863L121.841 127.319H123.097L121.456 132.777H119.975ZM124.332 132.877C123.952 132.877 123.651 132.757 123.428 132.517C123.205 132.271 123.093 131.973 123.093 131.621C123.093 131.186 123.277 130.846 123.645 130.6C124.014 130.354 124.608 130.19 125.428 130.106C125.417 129.922 125.361 129.777 125.261 129.671C125.166 129.559 125.004 129.503 124.776 129.503C124.603 129.503 124.427 129.537 124.248 129.604C124.07 129.671 123.88 129.763 123.679 129.88L123.235 129.068C123.498 128.906 123.777 128.775 124.072 128.675C124.374 128.574 124.686 128.524 125.01 128.524C125.54 128.524 125.947 128.677 126.232 128.984C126.517 129.291 126.659 129.763 126.659 130.399V132.777H125.654L125.571 132.35H125.537C125.364 132.506 125.177 132.634 124.976 132.735C124.781 132.83 124.566 132.877 124.332 132.877ZM124.75 131.923C124.89 131.923 125.01 131.892 125.11 131.831C125.216 131.764 125.322 131.677 125.428 131.571V130.843C124.993 130.899 124.692 130.988 124.524 131.111C124.357 131.228 124.273 131.367 124.273 131.529C124.273 131.663 124.315 131.764 124.399 131.831C124.488 131.892 124.605 131.923 124.75 131.923ZM128.83 132.877C128.406 132.877 128.11 132.751 127.943 132.5C127.781 132.244 127.7 131.906 127.7 131.487V126.908H128.93V131.538C128.93 131.666 128.953 131.755 128.997 131.805C129.048 131.856 129.098 131.881 129.148 131.881C129.176 131.881 129.198 131.881 129.215 131.881C129.237 131.875 129.265 131.87 129.299 131.864L129.449 132.777C129.383 132.804 129.296 132.827 129.19 132.844C129.09 132.866 128.97 132.877 128.83 132.877ZM131.342 132.877C130.89 132.877 130.561 132.729 130.355 132.433C130.154 132.132 130.053 131.722 130.053 131.203V128.624H131.284V131.044C131.284 131.34 131.326 131.546 131.409 131.663C131.493 131.775 131.624 131.831 131.803 131.831C131.959 131.831 132.09 131.794 132.196 131.722C132.302 131.649 132.417 131.532 132.54 131.37V128.624H133.77V132.777H132.766L132.673 132.199H132.648C132.475 132.405 132.286 132.57 132.079 132.693C131.873 132.816 131.627 132.877 131.342 132.877ZM136.452 132.877C135.938 132.877 135.57 132.729 135.347 132.433C135.129 132.138 135.02 131.75 135.02 131.27V129.587H134.451V128.675L135.087 128.624L135.23 127.519H136.251V128.624H137.247V129.587H136.251V131.253C136.251 131.487 136.298 131.658 136.393 131.764C136.494 131.864 136.625 131.914 136.787 131.914C136.854 131.914 136.921 131.906 136.988 131.889C137.06 131.872 137.124 131.853 137.18 131.831L137.373 132.726C137.267 132.76 137.136 132.793 136.979 132.827C136.829 132.86 136.653 132.877 136.452 132.877ZM138.058 132.777V128.624H139.288V132.777H138.058ZM138.669 128.013C138.462 128.013 138.295 127.955 138.166 127.838C138.038 127.72 137.974 127.564 137.974 127.369C137.974 127.173 138.038 127.017 138.166 126.9C138.295 126.783 138.462 126.724 138.669 126.724C138.875 126.724 139.043 126.783 139.171 126.9C139.299 127.017 139.363 127.173 139.363 127.369C139.363 127.564 139.299 127.72 139.171 127.838C139.043 127.955 138.875 128.013 138.669 128.013ZM142.179 132.877C141.794 132.877 141.445 132.793 141.133 132.626C140.826 132.453 140.58 132.205 140.396 131.881C140.218 131.552 140.128 131.158 140.128 130.701C140.128 130.237 140.229 129.844 140.43 129.52C140.631 129.196 140.896 128.951 141.225 128.784C141.554 128.611 141.909 128.524 142.288 128.524C142.545 128.524 142.771 128.566 142.966 128.65C143.167 128.733 143.346 128.839 143.502 128.968L142.924 129.763C142.729 129.601 142.542 129.52 142.363 129.52C142.068 129.52 141.83 129.626 141.652 129.838C141.479 130.05 141.392 130.338 141.392 130.701C141.392 131.058 141.479 131.345 141.652 131.563C141.83 131.775 142.054 131.881 142.322 131.881C142.456 131.881 142.587 131.853 142.715 131.797C142.843 131.736 142.961 131.663 143.067 131.579L143.552 132.383C143.346 132.562 143.122 132.69 142.882 132.768C142.642 132.841 142.408 132.877 142.179 132.877ZM145.825 132.877C145.473 132.877 145.141 132.793 144.829 132.626C144.522 132.453 144.273 132.205 144.084 131.881C143.894 131.552 143.799 131.158 143.799 130.701C143.799 130.237 143.894 129.844 144.084 129.52C144.273 129.196 144.522 128.951 144.829 128.784C145.141 128.611 145.473 128.524 145.825 128.524C146.176 128.524 146.506 128.611 146.813 128.784C147.119 128.951 147.368 129.196 147.558 129.52C147.747 129.844 147.842 130.237 147.842 130.701C147.842 131.158 147.747 131.552 147.558 131.881C147.368 132.205 147.119 132.453 146.813 132.626C146.506 132.793 146.176 132.877 145.825 132.877ZM145.825 131.881C146.076 131.881 146.266 131.775 146.394 131.563C146.522 131.345 146.586 131.058 146.586 130.701C146.586 130.338 146.522 130.05 146.394 129.838C146.266 129.626 146.076 129.52 145.825 129.52C145.568 129.52 145.375 129.626 145.247 129.838C145.124 130.05 145.063 130.338 145.063 130.701C145.063 131.058 145.124 131.345 145.247 131.563C145.375 131.775 145.568 131.881 145.825 131.881ZM150.461 132.777V127.319H152.336C152.738 127.319 153.101 127.374 153.425 127.486C153.754 127.592 154.016 127.773 154.212 128.03C154.407 128.287 154.505 128.636 154.505 129.077C154.505 129.501 154.407 129.849 154.212 130.123C154.016 130.396 153.757 130.6 153.433 130.734C153.109 130.862 152.755 130.927 152.37 130.927H151.692V132.777H150.461ZM151.692 129.947H152.295C152.964 129.947 153.299 129.657 153.299 129.077C153.299 128.792 153.21 128.591 153.031 128.474C152.853 128.357 152.596 128.298 152.261 128.298H151.692V129.947ZM156.478 132.877C156.054 132.877 155.758 132.751 155.59 132.5C155.429 132.244 155.348 131.906 155.348 131.487V126.908H156.578V131.538C156.578 131.666 156.6 131.755 156.645 131.805C156.695 131.856 156.746 131.881 156.796 131.881C156.824 131.881 156.846 131.881 156.863 131.881C156.885 131.875 156.913 131.87 156.946 131.864L157.097 132.777C157.03 132.804 156.944 132.827 156.838 132.844C156.737 132.866 156.617 132.877 156.478 132.877ZM158.789 132.877C158.41 132.877 158.108 132.757 157.885 132.517C157.662 132.271 157.55 131.973 157.55 131.621C157.55 131.186 157.734 130.846 158.103 130.6C158.471 130.354 159.066 130.19 159.886 130.106C159.875 129.922 159.819 129.777 159.718 129.671C159.624 129.559 159.462 129.503 159.233 129.503C159.06 129.503 158.884 129.537 158.706 129.604C158.527 129.671 158.337 129.763 158.136 129.88L157.693 129.068C157.955 128.906 158.234 128.775 158.53 128.675C158.831 128.574 159.144 128.524 159.467 128.524C159.998 128.524 160.405 128.677 160.69 128.984C160.974 129.291 161.116 129.763 161.116 130.399V132.777H160.112L160.028 132.35H159.995C159.822 132.506 159.635 132.634 159.434 132.735C159.239 132.83 159.024 132.877 158.789 132.877ZM159.208 131.923C159.347 131.923 159.467 131.892 159.568 131.831C159.674 131.764 159.78 131.677 159.886 131.571V130.843C159.451 130.899 159.149 130.988 158.982 131.111C158.814 131.228 158.731 131.367 158.731 131.529C158.731 131.663 158.773 131.764 158.856 131.831C158.946 131.892 159.063 131.923 159.208 131.923ZM163.609 132.877C163.096 132.877 162.727 132.729 162.504 132.433C162.286 132.138 162.178 131.75 162.178 131.27V129.587H161.608V128.675L162.245 128.624L162.387 127.519H163.408V128.624H164.404V129.587H163.408V131.253C163.408 131.487 163.456 131.658 163.55 131.764C163.651 131.864 163.782 131.914 163.944 131.914C164.011 131.914 164.078 131.906 164.145 131.889C164.217 131.872 164.282 131.853 164.337 131.831L164.53 132.726C164.424 132.76 164.293 132.793 164.136 132.827C163.986 132.86 163.81 132.877 163.609 132.877ZM165.424 132.777V129.587H164.872V128.675L165.424 128.633V128.407C165.424 128.111 165.474 127.843 165.575 127.603C165.675 127.363 165.837 127.171 166.06 127.026C166.283 126.88 166.582 126.808 166.956 126.808C167.129 126.808 167.288 126.825 167.433 126.858C167.578 126.892 167.695 126.925 167.785 126.959L167.559 127.863C167.486 127.835 167.414 127.815 167.341 127.804C167.268 127.787 167.199 127.779 167.132 127.779C166.981 127.779 166.864 127.826 166.78 127.921C166.696 128.011 166.655 128.161 166.655 128.373V128.624H167.4V129.587H166.655V132.777H165.424ZM169.769 132.877C169.418 132.877 169.085 132.793 168.773 132.626C168.466 132.453 168.218 132.205 168.028 131.881C167.838 131.552 167.743 131.158 167.743 130.701C167.743 130.237 167.838 129.844 168.028 129.52C168.218 129.196 168.466 128.951 168.773 128.784C169.085 128.611 169.418 128.524 169.769 128.524C170.121 128.524 170.45 128.611 170.757 128.784C171.064 128.951 171.312 129.196 171.502 129.52C171.692 129.844 171.787 130.237 171.787 130.701C171.787 131.158 171.692 131.552 171.502 131.881C171.312 132.205 171.064 132.453 170.757 132.626C170.45 132.793 170.121 132.877 169.769 132.877ZM169.769 131.881C170.02 131.881 170.21 131.775 170.338 131.563C170.467 131.345 170.531 131.058 170.531 130.701C170.531 130.338 170.467 130.05 170.338 129.838C170.21 129.626 170.02 129.52 169.769 129.52C169.512 129.52 169.32 129.626 169.192 129.838C169.069 130.05 169.007 130.338 169.007 130.701C169.007 131.058 169.069 131.345 169.192 131.563C169.32 131.775 169.512 131.881 169.769 131.881ZM172.629 132.777V128.624H173.634L173.718 129.353H173.751C173.902 129.074 174.083 128.867 174.295 128.733C174.507 128.594 174.719 128.524 174.932 128.524C175.049 128.524 175.146 128.532 175.225 128.549C175.303 128.56 175.37 128.58 175.425 128.608L175.225 129.671C175.152 129.649 175.079 129.632 175.007 129.621C174.94 129.609 174.862 129.604 174.772 129.604C174.616 129.604 174.452 129.662 174.279 129.78C174.111 129.891 173.972 130.087 173.86 130.366V132.777H172.629ZM175.965 132.777V128.624H176.969L177.053 129.16H177.087C177.26 128.987 177.444 128.839 177.639 128.717C177.834 128.588 178.069 128.524 178.342 128.524C178.638 128.524 178.875 128.585 179.054 128.708C179.238 128.825 179.383 128.996 179.489 129.219C179.673 129.029 179.869 128.867 180.075 128.733C180.282 128.594 180.522 128.524 180.795 128.524C181.241 128.524 181.568 128.675 181.774 128.976C181.986 129.272 182.093 129.679 182.093 130.198V132.777H180.862V130.357C180.862 130.056 180.82 129.849 180.736 129.738C180.658 129.626 180.53 129.57 180.351 129.57C180.145 129.57 179.908 129.704 179.64 129.972V132.777H178.409V130.357C178.409 130.056 178.367 129.849 178.284 129.738C178.206 129.626 178.077 129.57 177.899 129.57C177.692 129.57 177.458 129.704 177.195 129.972V132.777H175.965ZM185.982 132.777V128.357H184.483V127.319H188.719V128.357H187.221V132.777H185.982ZM190.615 132.877C190.264 132.877 189.932 132.793 189.619 132.626C189.312 132.453 189.064 132.205 188.874 131.881C188.684 131.552 188.589 131.158 188.589 130.701C188.589 130.237 188.684 129.844 188.874 129.52C189.064 129.196 189.312 128.951 189.619 128.784C189.932 128.611 190.264 128.524 190.615 128.524C190.967 128.524 191.296 128.611 191.603 128.784C191.91 128.951 192.158 129.196 192.348 129.52C192.538 129.844 192.633 130.237 192.633 130.701C192.633 131.158 192.538 131.552 192.348 131.881C192.158 132.205 191.91 132.453 191.603 132.626C191.296 132.793 190.967 132.877 190.615 132.877ZM190.615 131.881C190.866 131.881 191.056 131.775 191.185 131.563C191.313 131.345 191.377 131.058 191.377 130.701C191.377 130.338 191.313 130.05 191.185 129.838C191.056 129.626 190.866 129.52 190.615 129.52C190.359 129.52 190.166 129.626 190.038 129.838C189.915 130.05 189.853 130.338 189.853 130.701C189.853 131.058 189.915 131.345 190.038 131.563C190.166 131.775 190.359 131.881 190.615 131.881ZM194.723 132.877C194.271 132.877 193.942 132.729 193.735 132.433C193.534 132.132 193.434 131.722 193.434 131.203V128.624H194.664V131.044C194.664 131.34 194.706 131.546 194.79 131.663C194.874 131.775 195.005 131.831 195.183 131.831C195.34 131.831 195.471 131.794 195.577 131.722C195.683 131.649 195.797 131.532 195.92 131.37V128.624H197.151V132.777H196.146L196.054 132.199H196.029C195.856 132.405 195.666 132.57 195.46 132.693C195.253 132.816 195.008 132.877 194.723 132.877ZM198.233 132.777V128.624H199.238L199.322 129.353H199.355C199.506 129.074 199.687 128.867 199.899 128.733C200.111 128.594 200.323 128.524 200.535 128.524C200.653 128.524 200.75 128.532 200.828 128.549C200.907 128.56 200.974 128.58 201.029 128.608L200.828 129.671C200.756 129.649 200.683 129.632 200.611 129.621C200.544 129.609 200.466 129.604 200.376 129.604C200.22 129.604 200.056 129.662 199.883 129.78C199.715 129.891 199.576 130.087 199.464 130.366V132.777H198.233ZM202.046 130.843L201.87 128.281L201.828 127.168H203.067L203.025 128.281L202.85 130.843H202.046ZM202.448 132.877C202.236 132.877 202.057 132.804 201.912 132.659C201.772 132.509 201.703 132.325 201.703 132.107C201.703 131.884 201.772 131.699 201.912 131.554C202.057 131.404 202.236 131.328 202.448 131.328C202.66 131.328 202.836 131.404 202.975 131.554C203.12 131.699 203.193 131.884 203.193 132.107C203.193 132.325 203.12 132.509 202.975 132.659C202.836 132.804 202.66 132.877 202.448 132.877Z" fill="#1839A0"/>
<rect x="146.865" y="187.516" width="96.8007" height="16.5206" rx="1.50895" fill="#3CE3D7"/>
<path d="M158.785 197.858C158.387 197.858 158.029 197.77 157.713 197.593C157.396 197.416 157.147 197.158 156.966 196.819C156.785 196.475 156.694 196.058 156.694 195.57C156.694 195.085 156.787 194.671 156.972 194.327C157.158 193.978 157.409 193.714 157.726 193.532C158.043 193.347 158.398 193.254 158.792 193.254C159.109 193.254 159.376 193.313 159.593 193.431C159.815 193.544 159.996 193.673 160.137 193.818L159.716 194.327C159.603 194.218 159.476 194.128 159.335 194.055C159.2 193.978 159.028 193.94 158.819 193.94C158.426 193.94 158.106 194.085 157.862 194.374C157.622 194.66 157.502 195.051 157.502 195.549C157.502 196.056 157.618 196.455 157.848 196.744C158.079 197.029 158.417 197.172 158.86 197.172C158.987 197.172 159.107 197.156 159.22 197.125C159.333 197.088 159.426 197.038 159.498 196.975V196.018H158.656V195.373H160.205V197.328C160.055 197.478 159.856 197.604 159.607 197.708C159.363 197.808 159.089 197.858 158.785 197.858ZM161.121 197.776V194.442H161.902V197.776H161.121ZM161.515 193.858C161.374 193.858 161.261 193.818 161.175 193.736C161.089 193.655 161.046 193.546 161.046 193.41C161.046 193.279 161.089 193.173 161.175 193.091C161.261 193.01 161.374 192.969 161.515 192.969C161.655 192.969 161.768 193.01 161.854 193.091C161.94 193.173 161.983 193.279 161.983 193.41C161.983 193.546 161.94 193.655 161.854 193.736C161.768 193.818 161.655 193.858 161.515 193.858ZM163.645 197.776L162.484 194.442H163.278L163.808 196.174C163.853 196.337 163.898 196.502 163.944 196.67C163.993 196.837 164.041 197.007 164.086 197.179H164.113C164.163 197.007 164.211 196.837 164.256 196.67C164.306 196.502 164.353 196.337 164.399 196.174L164.928 194.442H165.682L164.548 197.776H163.645ZM167.646 197.858C167.338 197.858 167.06 197.79 166.811 197.654C166.562 197.514 166.365 197.315 166.22 197.057C166.075 196.794 166.003 196.479 166.003 196.113C166.003 195.751 166.075 195.438 166.22 195.176C166.37 194.913 166.562 194.712 166.797 194.571C167.033 194.431 167.279 194.361 167.537 194.361C167.841 194.361 168.094 194.429 168.298 194.565C168.502 194.696 168.656 194.881 168.76 195.121C168.864 195.357 168.916 195.631 168.916 195.943C168.916 196.106 168.905 196.233 168.882 196.323H166.763C166.8 196.617 166.906 196.846 167.083 197.009C167.259 197.172 167.481 197.254 167.748 197.254C167.893 197.254 168.026 197.233 168.149 197.192C168.275 197.147 168.4 197.086 168.522 197.009L168.787 197.498C168.628 197.602 168.452 197.688 168.257 197.756C168.063 197.824 167.859 197.858 167.646 197.858ZM166.757 195.794H168.237C168.237 195.536 168.18 195.334 168.067 195.189C167.954 195.04 167.784 194.965 167.558 194.965C167.363 194.965 167.189 195.038 167.035 195.182C166.886 195.323 166.793 195.527 166.757 195.794ZM171.021 197.776V194.442H171.666L171.72 194.897H171.748C171.888 194.748 172.04 194.621 172.203 194.517C172.37 194.413 172.558 194.361 172.766 194.361C173.011 194.361 173.205 194.415 173.35 194.524C173.5 194.628 173.613 194.773 173.69 194.958C173.848 194.786 174.013 194.644 174.185 194.531C174.362 194.417 174.554 194.361 174.763 194.361C175.116 194.361 175.376 194.476 175.543 194.707C175.711 194.938 175.795 195.264 175.795 195.685V197.776H175.007V195.787C175.007 195.511 174.964 195.316 174.878 195.203C174.796 195.09 174.67 195.033 174.498 195.033C174.289 195.033 174.056 195.171 173.798 195.447V197.776H173.017V195.787C173.017 195.511 172.974 195.316 172.888 195.203C172.807 195.09 172.678 195.033 172.501 195.033C172.293 195.033 172.06 195.171 171.802 195.447V197.776H171.021ZM178.17 197.858C177.862 197.858 177.583 197.79 177.334 197.654C177.086 197.514 176.889 197.315 176.744 197.057C176.599 196.794 176.526 196.479 176.526 196.113C176.526 195.751 176.599 195.438 176.744 195.176C176.893 194.913 177.086 194.712 177.321 194.571C177.556 194.431 177.803 194.361 178.061 194.361C178.364 194.361 178.618 194.429 178.822 194.565C179.025 194.696 179.179 194.881 179.283 195.121C179.387 195.357 179.439 195.631 179.439 195.943C179.439 196.106 179.428 196.233 179.406 196.323H177.287C177.323 196.617 177.43 196.846 177.606 197.009C177.783 197.172 178.004 197.254 178.272 197.254C178.416 197.254 178.55 197.233 178.672 197.192C178.799 197.147 178.923 197.086 179.046 197.009L179.31 197.498C179.152 197.602 178.975 197.688 178.781 197.756C178.586 197.824 178.382 197.858 178.17 197.858ZM177.28 195.794H178.76C178.76 195.536 178.704 195.334 178.591 195.189C178.478 195.04 178.308 194.965 178.081 194.965C177.887 194.965 177.712 195.038 177.559 195.182C177.409 195.323 177.316 195.527 177.28 195.794ZM182.353 197.858C182.063 197.858 181.825 197.767 181.64 197.586C181.459 197.405 181.368 197.17 181.368 196.88C181.368 196.522 181.524 196.246 181.837 196.052C182.149 195.852 182.647 195.717 183.331 195.644C183.326 195.468 183.278 195.316 183.188 195.189C183.102 195.058 182.946 194.992 182.719 194.992C182.556 194.992 182.396 195.024 182.237 195.087C182.083 195.151 181.932 195.228 181.782 195.318L181.497 194.795C181.683 194.678 181.891 194.576 182.122 194.49C182.357 194.404 182.606 194.361 182.869 194.361C183.285 194.361 183.595 194.485 183.799 194.734C184.007 194.979 184.111 195.334 184.111 195.8V197.776H183.466L183.412 197.41H183.385C183.235 197.536 183.075 197.643 182.903 197.729C182.735 197.815 182.552 197.858 182.353 197.858ZM182.604 197.247C182.74 197.247 182.862 197.215 182.971 197.152C183.084 197.084 183.204 196.993 183.331 196.88V196.133C182.878 196.192 182.563 196.28 182.387 196.398C182.21 196.511 182.122 196.651 182.122 196.819C182.122 196.968 182.167 197.077 182.258 197.145C182.348 197.213 182.464 197.247 182.604 197.247ZM186.915 197.776L186.032 193.336H186.84L187.227 195.576C187.263 195.812 187.299 196.049 187.336 196.289C187.376 196.525 187.412 196.76 187.444 196.995H187.471C187.521 196.76 187.569 196.525 187.614 196.289C187.664 196.049 187.714 195.812 187.763 195.576L188.307 193.336H188.992L189.536 195.576C189.585 195.807 189.635 196.043 189.685 196.283C189.735 196.518 189.785 196.756 189.834 196.995H189.862C189.898 196.756 189.934 196.518 189.97 196.283C190.006 196.047 190.04 195.812 190.072 195.576L190.459 193.336H191.213L190.364 197.776H189.386L188.836 195.441C188.8 195.268 188.764 195.096 188.728 194.924C188.696 194.752 188.666 194.583 188.639 194.415H188.612C188.58 194.583 188.546 194.752 188.51 194.924C188.479 195.096 188.445 195.268 188.408 195.441L187.872 197.776H186.915ZM192.551 197.858C192.262 197.858 192.024 197.767 191.838 197.586C191.657 197.405 191.567 197.17 191.567 196.88C191.567 196.522 191.723 196.246 192.035 196.052C192.348 195.852 192.846 195.717 193.529 195.644C193.525 195.468 193.477 195.316 193.387 195.189C193.301 195.058 193.144 194.992 192.918 194.992C192.755 194.992 192.594 195.024 192.436 195.087C192.282 195.151 192.13 195.228 191.981 195.318L191.696 194.795C191.881 194.678 192.09 194.576 192.32 194.49C192.556 194.404 192.805 194.361 193.067 194.361C193.484 194.361 193.794 194.485 193.998 194.734C194.206 194.979 194.31 195.334 194.31 195.8V197.776H193.665L193.611 197.41H193.583C193.434 197.536 193.273 197.643 193.101 197.729C192.934 197.815 192.751 197.858 192.551 197.858ZM192.803 197.247C192.938 197.247 193.061 197.215 193.169 197.152C193.282 197.084 193.402 196.993 193.529 196.88V196.133C193.076 196.192 192.762 196.28 192.585 196.398C192.409 196.511 192.32 196.651 192.32 196.819C192.32 196.968 192.366 197.077 192.456 197.145C192.547 197.213 192.662 197.247 192.803 197.247ZM196.005 197.858C195.729 197.858 195.532 197.774 195.414 197.607C195.301 197.439 195.245 197.211 195.245 196.921V192.982H196.025V196.962C196.025 197.057 196.044 197.125 196.08 197.165C196.116 197.201 196.154 197.22 196.195 197.22C196.213 197.22 196.229 197.22 196.243 197.22C196.261 197.215 196.286 197.211 196.317 197.206L196.419 197.79C196.374 197.808 196.315 197.824 196.243 197.837C196.175 197.851 196.096 197.858 196.005 197.858ZM197.088 197.776V192.982H197.855V195.977H197.876L199.111 194.442H199.967L198.826 195.8L200.083 197.776H199.234L198.378 196.33L197.855 196.928V197.776H197.088ZM201.618 197.858C201.233 197.858 200.959 197.747 200.796 197.525C200.638 197.299 200.559 197.007 200.559 196.649V195.06H200.083V194.476L200.6 194.442L200.695 193.532H201.346V194.442H202.195V195.06H201.346V196.649C201.346 197.038 201.503 197.233 201.815 197.233C201.874 197.233 201.935 197.226 201.998 197.213C202.062 197.195 202.116 197.177 202.161 197.158L202.297 197.736C202.207 197.767 202.102 197.794 201.985 197.817C201.872 197.844 201.749 197.858 201.618 197.858ZM202.897 197.776V192.982H203.678V194.218L203.651 194.863C203.791 194.732 203.947 194.617 204.119 194.517C204.291 194.413 204.49 194.361 204.717 194.361C205.074 194.361 205.335 194.476 205.498 194.707C205.66 194.938 205.742 195.264 205.742 195.685V197.776H204.961V195.787C204.961 195.511 204.92 195.316 204.839 195.203C204.757 195.09 204.624 195.033 204.438 195.033C204.293 195.033 204.164 195.069 204.051 195.142C203.943 195.21 203.818 195.312 203.678 195.447V197.776H202.897ZM206.683 197.776V194.442H207.328L207.383 195.033H207.41C207.527 194.816 207.67 194.651 207.838 194.537C208.005 194.42 208.177 194.361 208.354 194.361C208.512 194.361 208.639 194.383 208.734 194.429L208.598 195.108C208.539 195.09 208.485 195.076 208.435 195.067C208.385 195.058 208.324 195.053 208.252 195.053C208.12 195.053 207.982 195.106 207.838 195.21C207.693 195.309 207.568 195.486 207.464 195.739V197.776H206.683ZM210.515 197.858C210.239 197.858 209.981 197.79 209.741 197.654C209.501 197.514 209.306 197.315 209.157 197.057C209.007 196.794 208.933 196.479 208.933 196.113C208.933 195.742 209.007 195.427 209.157 195.169C209.306 194.906 209.501 194.707 209.741 194.571C209.981 194.431 210.239 194.361 210.515 194.361C210.796 194.361 211.056 194.431 211.296 194.571C211.536 194.707 211.73 194.906 211.88 195.169C212.029 195.427 212.104 195.742 212.104 196.113C212.104 196.479 212.029 196.794 211.88 197.057C211.73 197.315 211.536 197.514 211.296 197.654C211.056 197.79 210.796 197.858 210.515 197.858ZM210.515 197.22C210.759 197.22 210.952 197.118 211.092 196.914C211.232 196.71 211.303 196.443 211.303 196.113C211.303 195.778 211.232 195.508 211.092 195.305C210.952 195.101 210.759 194.999 210.515 194.999C210.27 194.999 210.078 195.101 209.938 195.305C209.802 195.508 209.734 195.778 209.734 196.113C209.734 196.443 209.802 196.71 209.938 196.914C210.078 197.118 210.27 197.22 210.515 197.22ZM213.868 197.858C213.51 197.858 213.25 197.742 213.087 197.512C212.924 197.281 212.843 196.955 212.843 196.534V194.442H213.624V196.432C213.624 196.708 213.664 196.903 213.746 197.016C213.827 197.129 213.959 197.186 214.14 197.186C214.285 197.186 214.411 197.149 214.52 197.077C214.633 197.005 214.753 196.887 214.88 196.724V194.442H215.661V197.776H215.022L214.961 197.287H214.941C214.796 197.459 214.638 197.598 214.466 197.702C214.294 197.806 214.094 197.858 213.868 197.858ZM217.811 199.25C217.548 199.25 217.311 199.218 217.098 199.155C216.89 199.091 216.724 198.994 216.602 198.863C216.485 198.736 216.426 198.575 216.426 198.381C216.426 198.105 216.584 197.867 216.901 197.668V197.641C216.815 197.586 216.743 197.514 216.684 197.423C216.629 197.333 216.602 197.22 216.602 197.084C216.602 196.952 216.638 196.835 216.711 196.731C216.788 196.622 216.874 196.534 216.969 196.466V196.439C216.856 196.353 216.754 196.233 216.663 196.079C216.577 195.925 216.534 195.751 216.534 195.556C216.534 195.298 216.595 195.081 216.718 194.904C216.84 194.728 217.001 194.594 217.2 194.503C217.404 194.408 217.621 194.361 217.852 194.361C217.942 194.361 218.028 194.37 218.11 194.388C218.196 194.402 218.273 194.42 218.341 194.442H219.536V195.02H218.925C218.979 195.083 219.024 195.164 219.06 195.264C219.097 195.359 219.115 195.465 219.115 195.583C219.115 195.828 219.058 196.036 218.945 196.208C218.832 196.375 218.68 196.502 218.49 196.588C218.3 196.674 218.087 196.717 217.852 196.717C217.779 196.717 217.705 196.71 217.628 196.697C217.551 196.683 217.474 196.661 217.397 196.629C217.347 196.674 217.306 196.719 217.274 196.765C217.247 196.81 217.234 196.871 217.234 196.948C217.234 197.043 217.272 197.118 217.349 197.172C217.431 197.226 217.573 197.254 217.777 197.254H218.368C218.771 197.254 219.074 197.319 219.278 197.45C219.486 197.577 219.59 197.785 219.59 198.075C219.59 198.292 219.518 198.489 219.373 198.666C219.228 198.847 219.022 198.99 218.755 199.094C218.488 199.198 218.173 199.25 217.811 199.25ZM217.852 196.228C218.01 196.228 218.146 196.169 218.259 196.052C218.372 195.934 218.429 195.769 218.429 195.556C218.429 195.348 218.372 195.187 218.259 195.074C218.15 194.956 218.015 194.897 217.852 194.897C217.689 194.897 217.551 194.954 217.437 195.067C217.324 195.18 217.268 195.343 217.268 195.556C217.268 195.769 217.324 195.934 217.437 196.052C217.551 196.169 217.689 196.228 217.852 196.228ZM217.933 198.741C218.2 198.741 218.418 198.686 218.585 198.578C218.753 198.469 218.836 198.344 218.836 198.204C218.836 198.073 218.784 197.985 218.68 197.939C218.58 197.894 218.436 197.871 218.246 197.871H217.791C217.609 197.871 217.458 197.856 217.336 197.824C217.164 197.955 217.078 198.102 217.078 198.265C217.078 198.415 217.155 198.53 217.308 198.612C217.462 198.698 217.671 198.741 217.933 198.741ZM220.178 197.776V192.982H220.958V194.218L220.931 194.863C221.072 194.732 221.228 194.617 221.4 194.517C221.572 194.413 221.771 194.361 221.997 194.361C222.355 194.361 222.615 194.476 222.778 194.707C222.941 194.938 223.023 195.264 223.023 195.685V197.776H222.242V195.787C222.242 195.511 222.201 195.316 222.12 195.203C222.038 195.09 221.905 195.033 221.719 195.033C221.574 195.033 221.445 195.069 221.332 195.142C221.223 195.21 221.099 195.312 220.958 195.447V197.776H220.178Z" fill="#1B2142"/>
<g clip-path="url(#clip2_66_119)">
<path d="M230.317 193.197L230.62 192.894C230.748 192.766 230.955 192.766 231.082 192.894L233.734 195.544C233.862 195.673 233.862 195.88 233.734 196.007L231.082 198.658C230.954 198.787 230.747 198.787 230.62 198.658L230.317 198.356C230.188 198.226 230.19 198.015 230.323 197.888L231.966 196.322L228.046 196.322C227.865 196.322 227.719 196.176 227.719 195.995L227.719 195.558C227.719 195.377 227.865 195.231 228.046 195.231L231.966 195.231L230.323 193.665C230.189 193.538 230.186 193.327 230.317 193.197Z" fill="#1B2142"/>
</g>
<path fill-rule="evenodd" clip-rule="evenodd" d="M103.446 235.168H106.214L110.626 224.292H107.971L103.446 235.168Z" fill="#00CDBD"/>
<path d="M133.814 230.517C133.814 230.799 133.851 231.067 133.926 231.32C134 231.574 134.114 231.8 134.268 232C134.421 232.2 134.624 232.358 134.877 232.475C135.129 232.591 135.434 232.65 135.791 232.65C136.147 232.65 136.452 232.591 136.704 232.475C136.957 232.358 137.163 232.2 137.321 232C137.479 231.8 137.593 231.574 137.662 231.32C137.731 231.067 137.767 230.799 137.767 230.517V224.277H140.307V230.722C140.307 231.345 140.2 231.913 139.987 232.424C139.774 232.935 139.47 233.373 139.074 233.738C138.678 234.104 138.2 234.389 137.641 234.594C137.081 234.798 136.459 234.9 135.775 234.9C135.082 234.9 134.458 234.798 133.903 234.594C133.349 234.389 132.878 234.104 132.492 233.738C132.106 233.373 131.809 232.935 131.601 232.424C131.393 231.913 131.289 231.345 131.289 230.722V224.277H133.814V230.517ZM164.048 224C164.791 224 165.521 224.129 166.239 224.387C166.957 224.645 167.54 225.023 167.985 225.52L166.262 227.215C166.024 226.893 165.712 226.654 165.326 226.498C164.94 226.342 164.543 226.265 164.138 226.265C163.692 226.265 163.283 226.345 162.911 226.506C162.54 226.667 162.221 226.889 161.953 227.171C161.686 227.454 161.478 227.787 161.329 228.172C161.181 228.557 161.106 228.978 161.106 229.436C161.106 229.903 161.181 230.332 161.329 230.722C161.478 231.111 161.684 231.444 161.946 231.722C162.209 231.999 162.523 232.216 162.89 232.372C163.256 232.528 163.657 232.606 164.093 232.606C164.598 232.606 165.038 232.508 165.415 232.313C165.791 232.119 166.093 231.865 166.321 231.554L168.089 233.19C167.623 233.716 167.049 234.133 166.366 234.439C165.683 234.746 164.895 234.9 164.004 234.9C163.192 234.9 162.441 234.769 161.753 234.506C161.064 234.243 160.468 233.87 159.963 233.388C159.458 232.906 159.062 232.328 158.774 231.656C158.487 230.984 158.343 230.244 158.343 229.436C158.343 228.608 158.489 227.858 158.781 227.186C159.073 226.514 159.477 225.941 159.992 225.469C160.507 224.996 161.111 224.633 161.805 224.38C162.498 224.127 163.246 224 164.048 224ZM175.266 224C176.088 224 176.85 224.127 177.554 224.38C178.256 224.633 178.863 224.993 179.373 225.461C179.883 225.928 180.282 226.496 180.569 227.163C180.857 227.83 181 228.578 181 229.406C181 230.225 180.857 230.973 180.569 231.649C180.282 232.327 179.883 232.906 179.373 233.388C178.863 233.87 178.257 234.243 177.554 234.506C176.85 234.769 176.088 234.9 175.266 234.9C174.443 234.9 173.683 234.769 172.984 234.506C172.286 234.243 171.682 233.87 171.172 233.388C170.662 232.906 170.264 232.326 169.977 231.649C169.689 230.973 169.545 230.225 169.545 229.406C169.545 228.578 169.689 227.83 169.977 227.163C170.264 226.496 170.662 225.928 171.172 225.461C171.682 224.993 172.286 224.633 172.984 224.38C173.683 224.127 174.443 224 175.266 224ZM150.87 224.277V226.411H147.899V234.623H145.358V226.411H142.388V224.277H150.87ZM155.624 234.623H153.069V224.277H155.624V234.623ZM120.979 234.622H118.156L117.339 232.592H113.268L112.495 234.622H109.732L114.145 224.278H116.61L120.979 234.622ZM125.45 232.445H129.521V234.622H122.896V224.277H125.45V232.445ZM104.128 229.729L102.711 233.067L99 224.277H101.823L104.128 229.729ZM175.266 226.25C174.82 226.25 174.413 226.33 174.047 226.491C173.68 226.652 173.363 226.871 173.096 227.148C172.828 227.426 172.623 227.76 172.479 228.149C172.336 228.539 172.265 228.958 172.265 229.406C172.265 229.874 172.339 230.305 172.487 230.699C172.636 231.094 172.841 231.432 173.104 231.715C173.366 231.997 173.68 232.219 174.047 232.38C174.413 232.541 174.82 232.621 175.266 232.621C175.711 232.621 176.117 232.54 176.483 232.38C176.85 232.219 177.167 231.997 177.435 231.715C177.702 231.432 177.91 231.094 178.059 230.699C178.207 230.305 178.281 229.874 178.281 229.406C178.281 228.958 178.207 228.539 178.059 228.149C177.91 227.76 177.704 227.426 177.441 227.148C177.179 226.871 176.862 226.652 176.491 226.491C176.12 226.331 175.711 226.25 175.266 226.25ZM113.996 230.59H116.641L115.333 227.039L113.996 230.59Z" fill="white"/>
</g>
<defs>
<filter id="filter0_d_66_119" x="-2.33366" y="85.5853" width="288.902" height="185.309" filterUnits="userSpaceOnUse" color-interpolation-filters="sRGB">
<feFlood flood-opacity="0" result="BackgroundImageFix"/>
<feColorMatrix in="SourceAlpha" type="matrix" values="0 0 0 0 0 0 0 0 0 0 0 0 0 0 0 0 0 0 127 0" result="hardAlpha"/>
<feOffset dy="20.5602"/>
<feGaussianBlur stdDeviation="24.6668"/>
<feComposite in2="hardAlpha" operator="out"/>
<feColorMatrix type="matrix" values="0 0 0 0 0 0 0 0 0 0 0 0 0 0 0 0 0 0 0.1 0"/>
<feBlend mode="normal" in2="BackgroundImageFix" result="effect1_dropShadow_66_119"/>
<feBlend mode="normal" in="SourceGraphic" in2="effect1_dropShadow_66_119" result="shape"/>
</filter>
<filter id="filter1_dd_66_119" x="164.679" y="140.402" width="12.7485" height="12.7483" filterUnits="userSpaceOnUse" color-interpolation-filters="sRGB">
<feFlood flood-opacity="0" result="BackgroundImageFix"/>
<feColorMatrix in="SourceAlpha" type="matrix" values="0 0 0 0 0 0 0 0 0 0 0 0 0 0 0 0 0 0 127 0" result="hardAlpha"/>
<feOffset dy="1"/>
<feGaussianBlur stdDeviation="1"/>
<feColorMatrix type="matrix" values="0 0 0 0 0 0 0 0 0 0 0 0 0 0 0 0 0 0 0.06 0"/>
<feBlend mode="normal" in2="BackgroundImageFix" result="effect1_dropShadow_66_119"/>
<feColorMatrix in="SourceAlpha" type="matrix" values="0 0 0 0 0 0 0 0 0 0 0 0 0 0 0 0 0 0 127 0" result="hardAlpha"/>
<feOffset dy="1"/>
<feGaussianBlur stdDeviation="1.5"/>
<feColorMatrix type="matrix" values="0 0 0 0 0 0 0 0 0 0 0 0 0 0 0 0 0 0 0.1 0"/>
<feBlend mode="normal" in2="effect1_dropShadow_66_119" result="effect2_dropShadow_66_119"/>
<feBlend mode="normal" in="SourceGraphic" in2="effect2_dropShadow_66_119" result="shape"/>
</filter>
<filter id="filter2_dd_66_119" x="164.679" y="157.354" width="12.7485" height="12.7483" filterUnits="userSpaceOnUse" color-interpolation-filters="sRGB">
<feFlood flood-opacity="0" result="BackgroundImageFix"/>
<feColorMatrix in="SourceAlpha" type="matrix" values="0 0 0 0 0 0 0 0 0 0 0 0 0 0 0 0 0 0 127 0" result="hardAlpha"/>
<feOffset dy="1"/>
<feGaussianBlur stdDeviation="1"/>
<feColorMatrix type="matrix" values="0 0 0 0 0 0 0 0 0 0 0 0 0 0 0 0 0 0 0.06 0"/>
<feBlend mode="normal" in2="BackgroundImageFix" result="effect1_dropShadow_66_119"/>
<feColorMatrix in="SourceAlpha" type="matrix" values="0 0 0 0 0 0 0 0 0 0 0 0 0 0 0 0 0 0 127 0" result="hardAlpha"/>
<feOffset dy="1"/>
<feGaussianBlur stdDeviation="1.5"/>
<feColorMatrix type="matrix" values="0 0 0 0 0 0 0 0 0 0 0 0 0 0 0 0 0 0 0.1 0"/>
<feBlend mode="normal" in2="effect1_dropShadow_66_119" result="effect2_dropShadow_66_119"/>
<feBlend mode="normal" in="SourceGraphic" in2="effect2_dropShadow_66_119" result="shape"/>
</filter>
<filter id="filter3_dd_66_119" x="164.679" y="173.887" width="12.7485" height="12.7483" filterUnits="userSpaceOnUse" color-interpolation-filters="sRGB">
<feFlood flood-opacity="0" result="BackgroundImageFix"/>
<feColorMatrix in="SourceAlpha" type="matrix" values="0 0 0 0 0 0 0 0 0 0 0 0 0 0 0 0 0 0 127 0" result="hardAlpha"/>
<feOffset dy="1"/>
<feGaussianBlur stdDeviation="1"/>
<feColorMatrix type="matrix" values="0 0 0 0 0 0 0 0 0 0 0 0 0 0 0 0 0 0 0.06 0"/>
<feBlend mode="normal" in2="BackgroundImageFix" result="effect1_dropShadow_66_119"/>
<feColorMatrix in="SourceAlpha" type="matrix" values="0 0 0 0 0 0 0 0 0 0 0 0 0 0 0 0 0 0 127 0" result="hardAlpha"/>
<feOffset dy="1"/>
<feGaussianBlur stdDeviation="1.5"/>
<feColorMatrix type="matrix" values="0 0 0 0 0 0 0 0 0 0 0 0 0 0 0 0 0 0 0.1 0"/>
<feBlend mode="normal" in2="effect1_dropShadow_66_119" result="effect2_dropShadow_66_119"/>
<feBlend mode="normal" in="SourceGraphic" in2="effect2_dropShadow_66_119" result="shape"/>
</filter>
<linearGradient id="paint0_linear_66_119" x1="104.171" y1="145.716" x2="66.4424" y2="145.716" gradientUnits="userSpaceOnUse">
<stop stop-color="#DBDBDB" stop-opacity="0.05"/>
<stop offset="1" stop-color="#D9D9DA"/>
</linearGradient>
<linearGradient id="paint1_linear_66_119" x1="104.171" y1="162.458" x2="66.4424" y2="162.458" gradientUnits="userSpaceOnUse">
<stop stop-color="#DBDBDB" stop-opacity="0.05"/>
<stop offset="1" stop-color="#D9D9DA"/>
</linearGradient>
<linearGradient id="paint2_linear_66_119" x1="104.171" y1="179.201" x2="66.4424" y2="179.201" gradientUnits="userSpaceOnUse">
<stop stop-color="#DBDBDB" stop-opacity="0.05"/>
<stop offset="1" stop-color="#D9D9DA"/>
</linearGradient>
<clipPath id="clip0_66_119">
<rect width="280" height="250" fill="white"/>
</clipPath>
<clipPath id="clip1_66_119">
<rect width="37.1088" height="26.6577" fill="white" transform="translate(114.225 217.586) rotate(-99.4047)"/>
</clipPath>
<clipPath id="clip2_66_119">
<rect width="6.79026" height="6.79026" fill="white" transform="translate(227.379 192.381)"/>
</clipPath>
</defs>
</svg>
