<svg xmlns="http://www.w3.org/2000/svg" width="255" height="40" fill="none"><g fill="#000" clip-path="url(#a)"><path d="M35.48 1.539A4.612 4.612 0 0 1 38.804.107h16.092c10.465 0 15.705 13.162 8.305 20.86L47.083 37.735c-.74.77-2.005.224-2.005-.864V22.102l1.863-1.938c1.48-1.54.432-4.172-1.661-4.172H21.586L35.48 1.54Z"/><path d="M31.186 36.556a4.611 4.611 0 0 1-3.324 1.432H11.769c-10.464 0-15.705-13.162-8.305-20.86L19.582.36c.74-.77 2.005-.224 2.005.864v14.769l-1.862 1.938c-1.48 1.54-.432 4.172 1.66 4.172H45.08L31.186 36.555ZM160.145 12.8v19.043h5.592V12.8h-5.592Zm.389-3.168c.661.66 1.469.991 2.425.991.955 0 1.758-.33 2.407-.99.661-.662.991-1.464.991-2.408 0-.967-.33-1.775-.991-2.424-.649-.661-1.452-.991-2.407-.991-.956 0-1.764.33-2.425.99-.661.65-.991 1.458-.991 2.425 0 .944.33 1.746.991 2.407Z"/><path fill-rule="evenodd" d="M168.891 39.276V12.8h5.309v1.894h.07c.334-.33.694-.63 1.081-.903 1.25-.873 2.689-1.31 4.318-1.31 1.427 0 2.79.372 4.088 1.115 1.31.744 2.372 1.847 3.186 3.31.813 1.463 1.209 3.286 1.186 5.468.011 1.652-.219 3.092-.691 4.319-.472 1.215-1.109 2.224-1.911 3.026a8.053 8.053 0 0 1-2.691 1.805 7.948 7.948 0 0 1-3.008.602c-1.605 0-3.044-.448-4.318-1.345a9.055 9.055 0 0 1-.912-.743h-.115v9.238h-5.592Zm9.627-11.822c.826-.012 1.552-.23 2.177-.655.625-.425 1.116-1.027 1.469-1.805.354-.779.526-1.688.513-2.726.013-1.062-.164-1.97-.53-2.725-.354-.767-.855-1.351-1.505-1.752-.649-.413-1.392-.614-2.229-.602-.791-.012-1.5.183-2.124.584-.626.401-1.121.985-1.487 1.752-.366.755-.549 1.67-.549 2.743 0 1.038.183 1.947.549 2.726.377.778.885 1.38 1.522 1.805.637.425 1.369.643 2.194.655Z" clip-rule="evenodd"/><path d="M193.513 31.542a9.2 9.2 0 0 0 3.257.584c1.298 0 2.483-.254 3.557-.761 1.085-.507 1.952-1.215 2.602-2.124.661-.92.99-1.976.99-3.168 0-.944-.2-1.74-.601-2.389a5.068 5.068 0 0 0-1.487-1.593 8.292 8.292 0 0 0-1.822-.973 16.349 16.349 0 0 0-1.647-.566 45.805 45.805 0 0 1-1.77-.549c-.565-.189-1.032-.413-1.398-.672-.365-.26-.548-.602-.548-1.027 0-.425.183-.779.548-1.062.366-.283.826-.425 1.381-.425.66 0 1.203.177 1.628.531.437.354.767.72.991 1.098l4.3-1.859c-.542-1.227-1.463-2.212-2.76-2.955-1.286-.743-2.738-1.115-4.354-1.115-1.297 0-2.454.242-3.469.726-1.002.483-1.799 1.156-2.389 2.017-.578.85-.867 1.835-.867 2.955 0 1.062.248 1.965.743 2.708a6.13 6.13 0 0 0 1.93 1.84c.802.473 1.651.844 2.548 1.116.39.106.814.224 1.274.354.472.13.92.283 1.345.46.425.177.773.39 1.044.637.271.248.408.543.408.885 0 .271-.095.525-.284.76a1.962 1.962 0 0 1-.743.585c-.319.142-.69.212-1.115.212-.802 0-1.498-.247-2.089-.743-.589-.496-1.031-1.02-1.326-1.575L189 27.383a7.06 7.06 0 0 0 1.788 2.513 8.632 8.632 0 0 0 2.725 1.646Zm33.143.301V12.8h5.327v2.425h.097a6.937 6.937 0 0 1 1.408-1.47c1.062-.825 2.318-1.238 3.769-1.238 1.203 0 2.224.295 3.062.885.646.44 1.172 1.03 1.58 1.77h.1a6.471 6.471 0 0 1 2.195-1.806c1.121-.566 2.342-.85 3.664-.85 1.262 0 2.301.225 3.114.673.815.437 1.452 1.015 1.912 1.735a7.04 7.04 0 0 1 .973 2.336c.19.837.284 1.652.284 2.442v12.14h-5.629v-11.45c0-1.038-.218-1.834-.654-2.389-.425-.566-1.05-.85-1.876-.85a2.83 2.83 0 0 0-1.451.372c-.413.236-.743.596-.991 1.08-.236.484-.354 1.08-.354 1.787v11.45h-5.593v-11.45c0-1.038-.218-1.834-.655-2.389-.436-.566-1.067-.85-1.893-.85-.802 0-1.469.278-2 .832-.531.543-.796 1.357-.796 2.443v11.415h-5.593Zm-13.686.283c-1.31 0-2.501-.277-3.575-.832-1.074-.566-1.929-1.392-2.566-2.477-.625-1.098-.938-2.448-.938-4.053V12.8h5.592v11.22c0 1.098.284 1.936.85 2.514.578.566 1.28.85 2.106.85.614 0 1.151-.137 1.611-.408a2.797 2.797 0 0 0 1.097-1.15c.271-.508.406-1.11.406-1.805V12.8h5.593v12.37c0 .684.101 1.18.301 1.486.201.307.607.573 1.221.797l-1.982 4.672c-1.404-.366-2.431-.843-3.079-1.433a2.997 2.997 0 0 1-.743-1.027h-.142a9.767 9.767 0 0 1-1.646 1.328c-1.192.755-2.561 1.132-4.106 1.132Z"/><path fill-rule="evenodd" d="M148.034 32.126c-1.829 0-3.499-.419-5.009-1.257a9.65 9.65 0 0 1-3.593-3.468c-.885-1.475-1.327-3.174-1.327-5.097 0-1.923.442-3.622 1.327-5.097a9.514 9.514 0 0 1 3.593-3.451c1.51-.826 3.18-1.24 5.009-1.24 1.864 0 3.545.414 5.044 1.24a9.257 9.257 0 0 1 3.557 3.45c.885 1.476 1.327 3.175 1.327 5.098s-.442 3.622-1.327 5.097a9.351 9.351 0 0 1-3.575 3.468c-1.498.838-3.174 1.257-5.026 1.257Zm0-4.778c.872 0 1.657-.213 2.353-.637a4.49 4.49 0 0 0 1.646-1.77c.401-.755.602-1.634.602-2.637 0-.968-.194-1.83-.584-2.584a4.413 4.413 0 0 0-1.61-1.77c-.685-.436-1.476-.655-2.372-.655-.884 0-1.682.213-2.389.637a4.37 4.37 0 0 0-1.646 1.753c-.401.755-.602 1.628-.602 2.619 0 1.003.201 1.882.602 2.637a4.621 4.621 0 0 0 1.664 1.77 4.394 4.394 0 0 0 2.336.637Zm-26.48 11.627c1.321.39 2.772.584 4.353.584 1.475 0 2.826-.189 4.053-.566 1.227-.366 2.289-.92 3.185-1.664a7.504 7.504 0 0 0 2.107-2.761c.495-1.097.743-2.371.743-3.823V12.782h-5.079v1.858h-.106a8.334 8.334 0 0 0-1.098-.885c-1.227-.837-2.66-1.256-4.3-1.256-1.416 0-2.779.36-4.089 1.08-1.309.707-2.383 1.77-3.221 3.185-.825 1.404-1.239 3.168-1.239 5.292 0 1.592.242 2.979.726 4.159.484 1.18 1.127 2.165 1.93 2.955a8.273 8.273 0 0 0 2.707 1.752 8.348 8.348 0 0 0 2.991.567c1.617 0 3.056-.443 4.319-1.328a9.067 9.067 0 0 0 1.118-.938h.085v1.84c0 .91-.295 1.64-.885 2.195a5.31 5.31 0 0 1-2.141 1.24 8.204 8.204 0 0 1-2.425.389 8.451 8.451 0 0 1-2.69-.443 10.871 10.871 0 0 1-2.3-1.026l-1.841 4.389c.755.4 1.787.79 3.097 1.168Zm7.291-12.672c-.648.425-1.398.637-2.247.637-.839 0-1.576-.212-2.213-.637-.637-.436-1.138-1.032-1.504-1.787-.365-.767-.549-1.646-.549-2.637 0-.991.184-1.853.549-2.584.378-.732.897-1.292 1.558-1.681.66-.402 1.409-.602 2.247-.602.837 0 1.575.194 2.213.584.637.39 1.138.95 1.503 1.681.366.72.549 1.587.549 2.602 0 1.003-.189 1.887-.566 2.654-.378.755-.891 1.345-1.54 1.77Zm-23.33 5.823c-1.829 0-3.499-.419-5.009-1.257a9.649 9.649 0 0 1-3.592-3.468c-.885-1.475-1.328-3.174-1.328-5.097 0-1.923.443-3.622 1.328-5.097a9.512 9.512 0 0 1 3.592-3.451c1.51-.826 3.18-1.24 5.009-1.24 1.863 0 3.545.414 5.043 1.24a9.257 9.257 0 0 1 3.557 3.45c.885 1.476 1.328 3.175 1.328 5.098s-.443 3.622-1.328 5.097a9.344 9.344 0 0 1-3.575 3.468c-1.498.838-3.173 1.257-5.025 1.257Zm0-4.778c.873 0 1.657-.213 2.353-.637a4.507 4.507 0 0 0 1.647-1.77c.4-.755.6-1.634.6-2.637 0-.968-.194-1.83-.583-2.584a4.416 4.416 0 0 0-1.611-1.77c-.684-.436-1.475-.655-2.371-.655-.885 0-1.681.213-2.39.637a4.361 4.361 0 0 0-1.645 1.753c-.401.755-.602 1.628-.602 2.619 0 1.003.201 1.882.602 2.637a4.626 4.626 0 0 0 1.663 1.77 4.4 4.4 0 0 0 2.337.637Z" clip-rule="evenodd"/><path d="M80.469 5.756v26.087H95.67v-5.168h-9.397V5.756h-5.805Z"/></g><defs><clipPath id="a"><path fill="#fff" d="M0 0h254.286v40H0z"/></clipPath></defs></svg>