<svg xmlns="http://www.w3.org/2000/svg" width="150" height="40" fill="none"><g fill="#000" clip-path="url(#a)"><path fill-rule="evenodd" d="m.313 4.403 2.617-1.14a38.23 38.23 0 0 1 30.517 0l2.618 1.14v17.608c0 9.873-8.004 17.876-17.876 17.876-9.873 0-17.877-8.003-17.877-17.876V4.403Zm5.663 3.724v7.705a12.032 12.032 0 0 0 9.073-9.93c-3.089.3-6.146 1.04-9.073 2.225Zm.001 14.045a12.031 12.031 0 0 1 8.287 7.092c.602 1.454.913 3.012.916 4.586-5.24-1.328-9.13-6.042-9.203-11.678Zm12.035 2.094a17.697 17.697 0 0 0-5.264-5.264 17.697 17.697 0 0 0 5.264-5.264 17.697 17.697 0 0 0 5.264 5.264 17.697 17.697 0 0 0-5.264 5.264Zm2.831 9.668c5.443-1.206 9.52-6.045 9.558-11.842a12.032 12.032 0 0 0-9.558 11.778v.064Zm7.43-18.68c.69.286 1.402.506 2.128.659V8.127a32.553 32.553 0 0 0-9.432-2.258 12.033 12.033 0 0 0 7.304 9.385Zm50.322 21.12c-.85 0-1.614-.204-2.294-.611a4.564 4.564 0 0 1-1.614-1.7c-.385-.724-.578-1.54-.578-2.446 0-.918.193-1.733.578-2.447a4.474 4.474 0 0 1 1.597-1.682c.68-.42 1.45-.629 2.311-.629.782 0 1.478.17 2.09.51.5.278.914.636 1.24 1.074v-5.135H83.2V36.17h-1.275v-1.484c-.305.483-.713.87-1.223 1.162-.623.35-1.325.526-2.107.526Zm.068-1.274c.612 0 1.161-.153 1.648-.459.499-.306.89-.72 1.172-1.24a3.623 3.623 0 0 0 .442-1.784c0-.657-.147-1.246-.441-1.767a3.216 3.216 0 0 0-1.173-1.258 3.034 3.034 0 0 0-1.648-.458c-.6 0-1.144.152-1.631.458a3.29 3.29 0 0 0-1.156 1.24c-.271.522-.407 1.116-.407 1.785 0 .657.136 1.251.407 1.784a3.34 3.34 0 0 0 1.139 1.24 3.035 3.035 0 0 0 1.648.459Zm8.475.663a4.461 4.461 0 0 0 2.311.612c.623 0 1.19-.102 1.7-.306a4.558 4.558 0 0 0 1.342-.833 3.54 3.54 0 0 0 .832-1.138l-1.087-.578a3.822 3.822 0 0 1-1.105 1.19c-.453.316-1.013.475-1.682.475a3.208 3.208 0 0 1-1.63-.442 3.215 3.215 0 0 1-1.19-1.24 3.282 3.282 0 0 1-.354-1.495h7.167a5.175 5.175 0 0 0 .068-.816c0-.544-.096-1.07-.289-1.58a4.344 4.344 0 0 0-.832-1.393 3.832 3.832 0 0 0-1.325-.986c-.51-.249-1.094-.374-1.75-.374a4.22 4.22 0 0 0-2.243.612 4.39 4.39 0 0 0-1.564 1.682c-.385.703-.577 1.512-.577 2.43 0 .917.198 1.739.594 2.464a4.528 4.528 0 0 0 1.614 1.716Zm-.843-4.945c.043-.401.148-.764.317-1.087a3.057 3.057 0 0 1 1.121-1.24 3 3 0 0 1 1.58-.442c.567 0 1.076.147 1.53.442.453.283.798.674 1.036 1.172.18.35.267.735.265 1.155h-5.849Z" clip-rule="evenodd"/><path d="M95.25 27.063h1.274v1.11a2.76 2.76 0 0 1 .9-.872 3.149 3.149 0 0 1 1.632-.442 3.24 3.24 0 0 1 1.903.595c.438.306.778.684 1.019 1.133a2.78 2.78 0 0 1 1.003-1.167 3.321 3.321 0 0 1 1.869-.56c.612 0 1.172.147 1.682.441a3.29 3.29 0 0 1 1.24 1.224c.318.51.476 1.087.476 1.733v5.913h-1.274v-5.42c0-.556-.102-1.026-.306-1.41a2.093 2.093 0 0 0-.799-.885 2.14 2.14 0 0 0-1.172-.322 2.2 2.2 0 0 0-1.172.322 2.145 2.145 0 0 0-.833.901c-.204.385-.306.85-.306 1.393v5.42h-1.274v-5.42c0-.555-.102-1.025-.306-1.41a2.091 2.091 0 0 0-.798-.884 2.147 2.147 0 0 0-1.173-.322 2.23 2.23 0 0 0-1.19.322 2.18 2.18 0 0 0-.815.901c-.204.385-.306.85-.306 1.393v5.42H95.25v-9.107Zm14.941 12.845a3.33 3.33 0 0 1-.561-.05 2.385 2.385 0 0 1-.543-.136v-1.19c.113.012.255.029.424.051.182.034.363.051.544.051.555 0 .98-.119 1.275-.357.294-.226.583-.668.866-1.325l.329-.775-3.642-9.114h1.376l2.982 7.518 2.965-7.518h1.41l-4.163 10.263a6.21 6.21 0 0 1-.696 1.257 3.093 3.093 0 0 1-1.037.952c-.419.249-.929.373-1.529.373Z"/><path fill-rule="evenodd" d="M66.355 36.052c.453.215.969.323 1.547.323a4.3 4.3 0 0 0 1.46-.238c.454-.17.845-.391 1.173-.663.228-.19.415-.392.56-.607v1.304h1.276v-6.253c0-.6-.148-1.127-.442-1.58a2.888 2.888 0 0 0-1.207-1.088c-.51-.26-1.098-.39-1.767-.39-.51 0-1.002.096-1.478.288-.476.181-.9.43-1.275.748a3.033 3.033 0 0 0-.798 1.053l1.156.629c.203-.442.515-.799.934-1.07.419-.284.906-.425 1.461-.425.634 0 1.15.17 1.547.51.396.34.594.781.594 1.325v.47l-3.296.55c-.669.113-1.218.305-1.648.577-.43.272-.748.606-.952 1.002a2.721 2.721 0 0 0-.306 1.292c0 .498.13.94.391 1.325.26.385.617.691 1.07.918Zm4.74-4.509v.686c0 .555-.129 1.059-.39 1.512-.26.453-.623.815-1.087 1.087-.464.26-1.008.391-1.631.391-.51 0-.93-.142-1.258-.425a1.338 1.338 0 0 1-.475-1.036c0-.42.141-.782.424-1.088.295-.306.77-.515 1.428-.628l2.99-.499Z" clip-rule="evenodd"/><path d="M59.92 36.375c-.895 0-1.683-.21-2.362-.63a4.433 4.433 0 0 1-1.597-1.698c-.386-.725-.578-1.54-.578-2.447 0-.906.192-1.716.578-2.43a4.307 4.307 0 0 1 1.597-1.682c.68-.42 1.467-.629 2.361-.629.567 0 1.1.102 1.598.306.498.204.94.482 1.325.833.385.34.674.736.867 1.19l-1.156.594a2.836 2.836 0 0 0-1.036-1.19 2.837 2.837 0 0 0-1.598-.458c-.6 0-1.144.153-1.63.459a3.176 3.176 0 0 0-1.14 1.24c-.271.52-.407 1.116-.407 1.784 0 .657.136 1.252.408 1.784a3.34 3.34 0 0 0 1.138 1.24c.487.306 1.031.46 1.632.46.6 0 1.127-.154 1.58-.46a2.908 2.908 0 0 0 1.053-1.223l1.156.629a3.49 3.49 0 0 1-.867 1.189 4.446 4.446 0 0 1-1.325.833 4.177 4.177 0 0 1-1.598.306Z"/><path fill-rule="evenodd" d="m49.012 23.512-4.621 12.659h1.427l1.104-3.093h5.658l1.088 3.093h1.427l-4.621-12.659h-1.462Zm3.093 8.292h-4.74l2.377-6.696 2.363 6.696Z" clip-rule="evenodd"/><path d="M45.543 3.009v15.108h9.532V15.38h-6.389V3.009h-3.143Zm48.004 15.109h3.042V7.044h-3.042v11.074Zm0-15.109V6.05h3.042V3.009h-3.042Z"/><path fill-rule="evenodd" d="M98.207 22.174V7.044h2.839v1.15a3.628 3.628 0 0 1 1.217-.927c.635-.31 1.359-.466 2.17-.466 1.055 0 2.008.257 2.86.77a5.685 5.685 0 0 1 2.028 2.09c.5.865.75 1.838.75 2.92 0 1.068-.25 2.042-.75 2.92a5.518 5.518 0 0 1-2.008 2.09c-.852.513-1.819.77-2.9.77-.757 0-1.46-.135-2.109-.406a3.87 3.87 0 0 1-1.055-.688v4.907h-3.042Zm5.841-6.551c.568 0 1.068-.128 1.501-.385a2.68 2.68 0 0 0 1.013-1.075c.244-.46.365-.987.365-1.582 0-.595-.121-1.115-.365-1.562a2.68 2.68 0 0 0-1.013-1.075c-.433-.27-.933-.405-1.501-.405-.541 0-1.028.128-1.46.385a2.72 2.72 0 0 0-.994 1.075c-.23.46-.345.987-.345 1.582 0 .595.115 1.122.345 1.582.243.46.574.818.994 1.075.432.257.919.385 1.46.385Z" clip-rule="evenodd"/><path d="M112.403 17.51c.906.567 1.967.85 3.184.85.865 0 1.616-.141 2.251-.425.636-.297 1.13-.703 1.481-1.217.365-.514.548-1.115.548-1.805 0-.797-.244-1.467-.731-2.008-.486-.554-1.189-.966-2.109-1.237l-1.764-.527a4.366 4.366 0 0 1-.69-.264 1.048 1.048 0 0 1-.385-.324.717.717 0 0 1-.122-.406.79.79 0 0 1 .325-.669c.23-.162.54-.243.933-.243.54 0 1.02.142 1.44.426.432.27.73.635.892 1.095l2.251-1.055a4.052 4.052 0 0 0-1.744-2.13c-.811-.513-1.758-.77-2.839-.77-.825 0-1.555.149-2.191.446-.635.284-1.129.683-1.48 1.197-.352.514-.527 1.115-.527 1.805 0 .784.243 1.467.73 2.048.486.568 1.183.98 2.089 1.237l1.886.527c.243.068.446.15.608.244.162.094.284.203.365.324a.658.658 0 0 1 .122.406c0 .31-.115.554-.345.73-.23.176-.561.264-.994.264a2.78 2.78 0 0 1-1.622-.507c-.487-.338-.872-.805-1.156-1.4l-2.231 1.055c.324.973.933 1.75 1.825 2.332Zm20.202-10.466h2.84v1.338c.208-.405.498-.729.872-.973.622-.405 1.365-.608 2.231-.608.919 0 1.724.237 2.413.71.41.268.73.591.961.97a3.646 3.646 0 0 1 1.047-1.031c.676-.433 1.467-.649 2.373-.649.797 0 1.501.176 2.109.527a3.753 3.753 0 0 1 1.46 1.48c.351.623.527 1.353.527 2.191v7.118h-3.042v-6.469c0-.433-.081-.804-.243-1.115a1.704 1.704 0 0 0-.649-.73c-.284-.176-.629-.264-1.034-.264a1.99 1.99 0 0 0-1.034.264 1.826 1.826 0 0 0-.67.73c-.149.31-.223.682-.223 1.115v6.47h-3.042v-6.47c0-.433-.081-.804-.243-1.115a1.704 1.704 0 0 0-.649-.73c-.284-.176-.629-.264-1.035-.264a1.99 1.99 0 0 0-1.034.264 1.831 1.831 0 0 0-.669.73c-.149.31-.223.682-.223 1.115v6.47h-3.043V7.043Zm-7.556 11.316c-.892 0-1.656-.188-2.291-.567a3.773 3.773 0 0 1-1.42-1.622c-.324-.69-.486-1.494-.486-2.414V7.044h3.042v6.47c0 .419.081.79.243 1.115.176.311.419.555.73.73.311.176.662.264 1.055.264.405 0 .757-.088 1.054-.264.311-.175.548-.419.71-.73a2.3 2.3 0 0 0 .264-1.115v-6.47h3.042v11.074h-2.84V16.77a2.717 2.717 0 0 1-1.095 1.125c-.568.31-1.237.466-2.008.466Z"/><path fill-rule="evenodd" d="M86.442 18.36c-1.095 0-2.096-.25-3.001-.75a5.894 5.894 0 0 1-2.15-2.048c-.527-.879-.791-1.872-.791-2.981 0-1.122.264-2.116.79-2.981a5.894 5.894 0 0 1 2.15-2.049c.906-.5 1.907-.75 3.002-.75 1.095 0 2.09.25 2.982.75A5.733 5.733 0 0 1 91.553 9.6c.54.865.811 1.859.811 2.981 0 1.109-.27 2.102-.811 2.981a5.733 5.733 0 0 1-2.13 2.048c-.892.5-1.886.75-2.98.75Zm0-2.737c.555 0 1.035-.128 1.44-.385.42-.257.744-.615.973-1.075.244-.46.366-.987.366-1.582 0-.595-.122-1.115-.366-1.562a2.586 2.586 0 0 0-.973-1.075c-.405-.27-.885-.405-1.44-.405-.554 0-1.04.135-1.46.405-.42.257-.75.616-.994 1.075-.23.447-.345.967-.345 1.562 0 .595.115 1.122.345 1.582.244.46.575.818.994 1.075.42.257.906.385 1.46.385Zm-14.976 6.53c.73.284 1.52.426 2.372.426 1.068 0 2.008-.216 2.82-.649a4.918 4.918 0 0 0 1.947-1.805c.472-.757.71-1.622.71-2.596V7.044h-2.84v1.163a3.806 3.806 0 0 0-1.136-.92c-.595-.324-1.291-.486-2.089-.486-1.014 0-1.92.23-2.717.69a5.01 5.01 0 0 0-1.886 1.906c-.46.798-.69 1.717-.69 2.758s.23 1.974.69 2.799a5.114 5.114 0 0 0 1.906 1.926c.811.46 1.73.69 2.758.69.798 0 1.494-.149 2.089-.446.322-.169.613-.383.872-.643v1.048c0 .474-.101.886-.304 1.238-.19.351-.467.615-.832.79-.365.19-.797.284-1.298.284-.635 0-1.183-.148-1.642-.446a2.108 2.108 0 0 1-.913-1.217l-2.82.994c.231.69.603 1.284 1.117 1.785a5.544 5.544 0 0 0 1.886 1.196Zm3.61-7.666c-.38.217-.825.325-1.34.325-.513 0-.973-.108-1.378-.325a2.57 2.57 0 0 1-.933-.933c-.216-.392-.325-.845-.325-1.358 0-.528.109-.987.325-1.38.23-.405.54-.716.933-.932.405-.23.865-.345 1.379-.345.5 0 .94.115 1.318.345.379.216.676.527.892.933.217.392.325.851.325 1.379 0 .527-.108.987-.325 1.379a2.185 2.185 0 0 1-.871.912ZM61.297 18.36c-1.095 0-2.095-.25-3.001-.75a5.894 5.894 0 0 1-2.15-2.048c-.527-.879-.79-1.872-.79-2.981 0-1.122.263-2.116.79-2.981a5.894 5.894 0 0 1 2.15-2.049c.906-.5 1.906-.75 3.001-.75 1.096 0 2.09.25 2.982.75a5.736 5.736 0 0 1 2.13 2.049c.54.865.81 1.859.81 2.981 0 1.109-.27 2.102-.81 2.981a5.735 5.735 0 0 1-2.13 2.048c-.893.5-1.886.75-2.982.75Zm0-2.737c.555 0 1.035-.128 1.44-.385.42-.257.744-.615.974-1.075.243-.46.365-.987.365-1.582 0-.595-.122-1.115-.365-1.562a2.587 2.587 0 0 0-.974-1.075c-.405-.27-.885-.405-1.44-.405-.554 0-1.04.135-1.46.405a2.73 2.73 0 0 0-.993 1.075c-.23.447-.345.967-.345 1.562 0 .595.115 1.122.345 1.582.243.46.574.818.993 1.075.42.257.906.385 1.46.385Z" clip-rule="evenodd"/></g><defs><clipPath id="a"><path fill="#fff" d="M0 0h149.735v40H0z"/></clipPath></defs></svg>