<svg width="40" height="40" viewBox="0 0 40 40" fill="none" xmlns="http://www.w3.org/2000/svg">
<g clip-path="url(#clip0_34_98)">
<path fill-rule="evenodd" clip-rule="evenodd" d="M10.3994 4.65281C14.3029 2.28477 18.2356 0 18.5676 0C18.6335 0 18.84 0.0886608 19.159 0.250856C20.4544 0.906124 23.6043 2.75297 26.7368 4.65281C26.753 8.68931 24.6737 10.9017 18.5686 9.6106C15.1896 11.5396 12.5307 9.53489 10.3994 4.65281Z" fill="#E39876"/>
<path fill-rule="evenodd" clip-rule="evenodd" d="M26.8316 14.6233L18.5686 19.6382L10.3049 14.6232L18.5685 9.60923L26.8316 14.6233Z" fill="#CFCED1"/>
<path fill-rule="evenodd" clip-rule="evenodd" d="M26.8316 14.6233L18.5686 19.6382L10.3049 14.6232L18.5685 9.60923L26.8316 14.6233Z" fill="#EC7944"/>
<path fill-rule="evenodd" clip-rule="evenodd" d="M18.9391 19.4159L10.4292 24.5802L2.13672 19.6981V19.5836L10.5525 14.4766L18.9391 19.4159Z" fill="#B5B7BA"/>
<path fill-rule="evenodd" clip-rule="evenodd" d="M26.8316 14.6233L18.5686 19.6382L10.3049 14.6232L18.5685 9.60923L26.8316 14.6233Z" fill="#E58254"/>
<path fill-rule="evenodd" clip-rule="evenodd" d="M34.7492 9.82227C35.0833 10.5943 35.0822 28.8574 34.7492 29.4619C34.4172 30.0674 19.3698 39.2001 18.5686 39.2823V19.6426L26.8308 14.6275H26.8319L34.7492 9.82227Z" fill="#424F55"/>
<path fill-rule="evenodd" clip-rule="evenodd" d="M10.3049 14.6275L2.13672 19.5853C2.13672 14.8849 2.2189 10.1996 2.3865 9.82227L10.3049 14.6275Z" fill="#CFCED1"/>
<path fill-rule="evenodd" clip-rule="evenodd" d="M18.568 19.6362V29.6653L10.3036 24.6502L18.568 19.6362Z" fill="#9B9EA5"/>
<path fill-rule="evenodd" clip-rule="evenodd" d="M10.3508 24.6518C9.01471 28.2839 6.02667 29.3741 2.38441 29.4573C2.21828 29.1547 2.13531 24.4326 2.13412 19.6953C5.17275 20.3134 8.04881 21.4931 10.3508 24.6518Z" fill="#C2C2C6"/>
<path fill-rule="evenodd" clip-rule="evenodd" d="M27.3445 14.7322L18.4987 20.0999L9.14846 14.9002C9.79969 11.6567 12.9492 9.66843 18.635 9.61297C23.8637 8.34366 27.5925 8.99001 27.3445 14.7322Z" fill="#E58254"/>
<path fill-rule="evenodd" clip-rule="evenodd" d="M34.7504 29.4475L34.7482 29.4562C34.572 29.7773 30.2587 32.4957 26.127 34.9881L17.1522 29.3026L26.0232 23.9199L34.7504 29.4475Z" fill="#677277"/>
<path fill-rule="evenodd" clip-rule="evenodd" d="M26.7368 4.65186C30.6543 7.02963 34.521 9.47447 34.7492 9.81833L26.8308 14.6236L18.5686 9.60964L22.7003 7.10207L26.7368 4.65186Z" fill="#EF692B"/>
<path fill-rule="evenodd" clip-rule="evenodd" d="M35 19.5792V19.6376V19.6949L26.8308 24.6516L18.5686 19.6376L26.8308 14.6226L35 19.5792Z" fill="#424F55"/>
<path fill-rule="evenodd" clip-rule="evenodd" d="M35 19.5792V19.6376V19.6949C33.2581 23.3573 30.3072 24.5424 26.8308 24.6516C21.9152 25.8486 19.2758 24.0244 18.5686 19.6376L26.8308 14.6226C30.9127 14.868 33.8085 16.3418 35 19.5792Z" fill="#5C656B"/>
<path fill-rule="evenodd" clip-rule="evenodd" d="M34.7488 9.82227C34.9142 10.205 34.9975 14.886 34.9997 19.5843L26.8304 14.6275L34.7488 9.82227Z" fill="#424F55"/>
<path fill-rule="evenodd" clip-rule="evenodd" d="M34.7492 29.4584C34.5816 29.7634 30.6738 32.2362 26.7368 34.6248C22.5381 35.8543 20.3344 33.1889 18.5686 29.6682C19.8272 27.3336 21.3843 25.131 26.8308 24.6531C32.6893 23.9762 34.0572 26.4784 34.7492 29.4584Z" fill="#677277"/>
<path fill-rule="evenodd" clip-rule="evenodd" d="M2.38501 29.4591L10.7381 24.3911L19.17 29.1867L10.4731 34.4645L6.26364 32.0705C4.12807 30.734 2.53639 29.6829 2.38501 29.4591Z" fill="#A8ABAF"/>
<path fill-rule="evenodd" clip-rule="evenodd" d="M34.9986 19.6978C34.9986 24.4025 34.9164 29.0824 34.7488 29.4598L26.8304 24.6544L34.9986 19.6978Z" fill="#4E5A5F"/>
<path fill-rule="evenodd" clip-rule="evenodd" d="M10.3524 14.627C8.80942 18.5457 6.87065 20.5234 2.13672 19.5848L2.15186 16.2576L2.35406 9.99692L2.3865 9.82176C2.41029 9.77959 2.50436 9.6963 2.66547 9.5752L10.3524 14.627Z" fill="#CFCED1"/>
<path fill-rule="evenodd" clip-rule="evenodd" d="M10.3983 4.6553L18.567 9.61301L10.3033 14.628L2.38508 9.82231C2.55223 9.51773 6.46057 7.04407 10.3983 4.6553Z" fill="#DEB6A7"/>
<path fill-rule="evenodd" clip-rule="evenodd" d="M18.5692 19.6376C17.0662 22.609 14.6733 24.656 10.3049 24.6516L2.13672 19.6949V19.5803L10.3049 14.6226L18.5692 19.6376Z" fill="#B5B7BA"/>
<path fill-rule="evenodd" clip-rule="evenodd" d="M2.38496 29.4606L10.3034 24.6554C13.326 25.328 16.2152 26.4979 18.5669 29.6709C16.576 31.8175 13.7366 33.3914 10.398 34.6281C6.49102 32.2585 2.61368 29.8063 2.38496 29.4606Z" fill="#A8ABAF"/>
<path fill-rule="evenodd" clip-rule="evenodd" d="M26.8316 24.6536L18.5686 29.6685L10.3049 24.6534L18.5685 19.6394L26.8316 24.6536Z" fill="#9B9EA5"/>
<path fill-rule="evenodd" clip-rule="evenodd" d="M26.736 34.6259C22.8303 36.995 18.8987 39.2798 18.5667 39.2798C18.2337 39.2798 14.3032 36.995 10.3975 34.6259L18.5667 29.6692L26.736 34.6259Z" fill="#8F9499"/>
</g>
<defs>
<clipPath id="clip0_34_98">
<rect width="40" height="40" fill="white"/>
</clipPath>
</defs>
</svg>
